<svg width="512" height="487" viewBox="0 0 512 487" fill="none" xmlns="http://www.w3.org/2000/svg">
<g clip-path="url(#clip0)">
<g clip-path="url(#clip1)">
<path d="M56.3848 408.714V147.767L244.357 217.352V486.998L56.3848 408.714Z" fill="#BE9769"/>
<path d="M244.357 232.575V72.3828L56.3848 157.191L244.357 232.575Z" fill="#AD9373"/>
<path d="M432.335 410.67V147.767L244.363 215.613V486.998L432.335 410.67Z" fill="#AF834E"/>
<path d="M244.363 232.575V72.3828L432.335 157.191L244.363 232.575Z" fill="#BEA484"/>
<path d="M319.53 6.42188L244.341 72.3834L432.312 157.191L512 78.6663L319.53 6.42188Z" fill="#D9AB76"/>
<path d="M196.011 306.194L106.453 270.37L106.138 289.419L195.696 325.243L196.011 306.194Z" fill="#51A54A"/>
<path fill-rule="evenodd" clip-rule="evenodd" d="M137.084 360.762C141.406 358.392 145.708 365.541 149.932 367.23C154.125 368.908 158.689 365.303 162.814 371.055C160.813 371.776 152.892 372.186 149.87 370.978C146.859 369.774 139.024 363.061 137.084 360.762ZM126.724 349.52C128.722 350.909 129.096 352.512 132.335 353.888C135.345 355.16 136.029 354.546 138.17 354.245C143.255 353.52 145.362 359.099 150.036 360.968C154.72 362.841 157.036 358.963 162.059 363.859C164.121 365.863 164.891 367.013 167.872 368.091C170.99 369.225 171.463 367.982 173.417 368.196C171.796 368.831 170.156 369.391 168.401 369.881C166.413 370.427 164.963 371.561 163.017 369.557C156.902 363.259 154.556 367.66 149.956 365.821C145.303 363.959 143.175 357.713 136.837 359.141C134.999 359.565 133.356 357.078 131.537 355.078C129.8 353.181 128.272 351.399 126.724 349.52ZM165.485 365.434C162.604 363.383 162.052 361.129 157.705 359.89C154.395 358.952 153.636 360.942 150.06 359.512C146.463 358.074 145.78 355.461 142.378 353.748C138.036 351.567 137.479 353.424 134.527 353.083C130.578 352.628 129.267 349.763 126.637 347.815C124.308 346.088 124.845 347.336 122.95 344.84C122.322 344.009 120.682 341.958 120.326 341.246C124.798 338.731 129.491 348.33 135.593 348.433C138.129 348.47 139.333 346.951 143.124 349.355C145.842 351.079 146.385 353.237 150.139 354.74C153.945 356.261 154.553 354.472 157.354 355.013C161.225 355.767 162.217 358.151 164.804 360.151C170.759 364.748 175.693 359.122 180.004 365.116C179.628 365.536 177.847 366.311 177.221 366.628C175.459 367.548 175.579 366.663 173.454 366.575C170.857 366.467 169.344 368.18 165.485 365.434ZM115.961 334.729C119.94 335.947 120.682 333.71 124.568 335.434C128.152 337.016 128.735 339.954 133.107 341.587C137.207 343.115 137.838 340.619 141.861 342.352C145.467 343.897 146.092 346.783 150.243 348.442C154.425 350.115 155.128 347.705 158.861 349.14C162.762 350.657 163.324 353.562 167.369 355.293C171.789 357.174 172.441 354.675 176.144 356.054C179.92 357.472 180.6 360.212 184.618 362.295L181.109 364.435C172.079 356.189 171.711 363.812 165.371 359.015C162.585 356.901 161.853 354.7 157.693 353.592C154.434 352.731 153.718 354.672 150.163 353.249C146.567 351.812 145.925 349.271 142.596 347.542C138.485 345.409 137.754 346.979 134.967 346.853C128.552 346.548 128.439 338.733 119.161 339.758L115.961 334.729ZM110.187 324.288C113.851 327.389 115.759 329.731 120.154 328.716C124.897 327.627 126.344 330.534 129.957 333.502C134.921 337.576 136.763 334.963 140.027 335.509C144.866 336.318 145.777 340.385 150.346 342.215C154.915 344.042 156.064 340.707 160.864 343.876C164.06 345.974 165.899 349.992 170.859 349.817C174.565 349.686 176.043 348.141 180.667 352.978C184.888 357.393 186.996 356.59 190.566 356.439C190.056 357.393 188.335 358.998 187.565 359.715C186.208 360.977 185.886 361.994 182.778 359.628C179.202 356.915 177.119 353.093 172.059 354.203C166.387 355.445 165.632 352.087 161.441 349.07C155.981 345.127 154.596 348.718 150.267 346.986C145.928 345.25 144.596 340.504 139.056 340.152C134.693 339.872 134.05 342.464 128.431 336.696C123.474 331.6 121.195 333.859 117.663 333.628C114.509 333.423 114.257 332.095 112.98 329.799C112.234 328.457 110.639 325.592 110.187 324.288ZM106.897 315.748C111.444 317.645 112.601 322.174 118.15 322.633C122.459 322.995 123.083 320.244 128.724 325.954C133.879 331.185 135.768 328.966 139.543 329.157C144.506 329.416 145.798 334.046 150.45 335.905C155.113 337.772 156.604 334.188 161.54 338.001C165.395 340.976 167.085 344.422 172.313 343.332C177.973 342.166 178.736 345.652 182.877 348.559C188.339 352.402 189.554 348.89 194.093 350.626C193.721 352.134 192.488 354.742 191.204 354.775C189.256 354.812 188.022 355.648 185.667 354.831C180.78 353.149 179.499 347.889 173.565 347.787C171.461 347.752 170.801 348.839 167.946 347.754C164.976 346.622 164.317 345.11 162.293 343.379C156.762 338.656 154.72 342.464 150.371 340.724C146.032 338.988 144.018 333.493 138.412 333.885C136.347 334.025 135.638 334.932 132.649 333.635C129.891 332.431 129.182 330.749 127.145 329.185C121.253 324.635 119.92 328.884 114.928 326.525C112.85 325.545 111.293 323.583 109.509 322.05C108.523 321.212 107.167 317.264 106.897 315.748ZM128.534 324.073C123.566 319.031 121.286 321.378 117.765 321.093C112.982 320.713 111.617 316.091 106.325 314.065C105.667 310.575 103.826 307.999 107.763 309.847C110.343 311.06 111.258 312.992 113.391 314.495C119.497 318.788 120.906 313.785 126.339 317.47C131.241 320.804 131.498 324.316 138.266 323.046C143.871 321.994 145.608 327.699 150.553 329.678C155.561 331.68 157.37 327.337 162.991 332.993C169.564 339.611 170.179 336.188 174.966 336.885C180.436 337.688 181.683 343.741 187.842 344.24C189.986 344.406 190.869 343.225 193.579 344.161C197.336 345.458 195.444 346.587 194.713 349.42C189.435 347.217 187.808 350.724 183.079 347.185C179.544 344.534 177.41 340.591 172.372 341.664C166.532 342.894 166.099 339.769 161.763 336.615C156.199 332.559 154.834 336.206 150.474 334.461C146.125 332.723 144.752 327.902 139.148 327.601C134.626 327.361 134.31 329.939 128.534 324.073ZM105.036 307.427C104.774 303.493 103.682 301.456 108.014 303.619C110.519 304.872 111.444 306.82 113.619 308.293C119.76 312.453 120.968 307.506 126.464 311.193C131.377 314.488 131.55 318.032 138.348 316.753C143.975 315.699 145.681 321.39 150.658 323.38C155.666 325.384 157.505 321.054 163.116 326.717C169.554 333.222 170.176 329.96 174.934 330.581C180.499 331.306 181.611 337.296 187.82 337.938C189.995 338.162 190.94 336.995 193.526 337.812C197.735 339.156 196.59 340.266 196.204 343.892C189.303 340.553 189.073 344.277 184.14 341.533C180.563 339.545 178.311 334.463 172.856 335.327C166.503 336.342 167.207 334.487 162.085 330.518C156.588 326.252 154.896 329.925 150.578 328.198C146.27 326.476 144.576 321.369 139.041 321.334C133.548 321.308 134.513 323.375 128.255 317.43C122.867 312.308 120.55 315.619 116.882 314.651C111.957 313.351 111.956 309.616 105.036 307.427ZM104.938 296.164L196.671 332.858L196.588 337.868C189.401 334.004 189.627 338.138 184.452 335.422C180.863 333.532 178.528 328.327 173.19 329.076C166.798 329.972 167.89 328.866 162.364 324.428C156.745 319.896 155.019 323.772 150.545 321.915C146.291 320.158 144.597 315.015 138.954 315.111C133.207 315.197 134.41 316.882 128.14 310.999C122.906 306.111 120.42 309.434 116.776 308.363C111.56 306.832 111.93 302.891 104.855 301.174L104.938 296.164ZM115.094 292.344L124.775 296.215L124.848 299.449L135.659 303.773L135.753 300.607L145.445 304.485L145.434 307.684L156.339 312.021L156.454 308.888L166.124 312.789L166.177 315.981L176.998 320.309L177.113 317.152L186.795 321.023L186.815 324.236L195.033 327.51C196.644 328.11 196.754 327.825 196.728 329.405L185.626 324.894L185.656 321.784L178.17 318.79L178.118 321.971L164.944 316.69L164.997 313.508L157.499 310.577L157.427 313.694L144.274 308.435L144.327 305.252L136.82 302.249L136.768 305.432L123.606 300.11L123.636 296.976L116.15 293.982L116.099 297.086C115.018 296.892 109.104 294.344 107.148 293.583C105.433 292.921 104.986 293.219 105.014 291.549L114.989 295.504L115.094 292.344ZM113.43 289.815L126.52 295.074L126.53 298.259L133.986 301.183L134.048 298.063L147.211 303.327L147.19 306.522L154.655 309.497L154.718 306.33L167.881 311.594L167.849 314.786L175.324 317.775L175.44 314.618L188.54 319.871V323.063C190.035 323.66 191.53 324.257 193.025 324.857C195.22 325.734 196.789 325.725 196.759 327.531L187.37 323.765L187.37 320.606L176.486 316.254L176.433 319.434L166.7 315.542L166.732 312.35L155.815 308.052L155.774 311.172L146.02 307.271L146.072 304.088L135.146 299.739L135.084 302.896L125.35 298.978L125.402 295.819L114.477 291.448L114.414 294.582C112.927 294.169 110.775 293.173 109.218 292.55C104.806 290.783 105.016 291.402 105.045 289.675L113.305 292.967L113.43 289.815ZM113.301 284.278C113.464 283.991 118.523 280.346 119.224 279.922C124.284 276.879 121.441 276.368 127.275 278.701L175.337 297.926C178.442 299.167 178.734 298.672 180.325 301.125L188.808 314.481L195.702 325.268L189.136 322.643L189.126 319.434L174.802 313.718L174.739 316.884L168.456 314.369L168.467 311.172L154.121 305.511L154.059 308.61L147.786 306.102L147.807 302.919L133.462 297.214L133.389 300.343L127.106 297.83L127.106 294.626L112.793 288.903L112.667 292.055L106.144 289.411L113.301 284.278ZM105.922 235.992L197.676 272.693L196.763 324.75C195.253 321.84 191.11 315.902 189.131 312.759C186.567 308.687 183.989 304.863 181.509 300.803C179.419 297.401 179.26 298.063 175.224 296.449L127.152 277.22C123.022 275.568 123.096 274.905 120.889 276.646C118.053 278.874 106.42 286.705 105.082 288.077L105.922 235.992ZM198.495 271.557L105.152 234.219C104.078 234.87 104.056 271.218 103.974 276.184C103.766 288.721 102.058 304.804 106.055 317.057C109.861 328.735 117.19 339.277 123.622 347.495C127.631 352.631 142.476 369.417 149.847 372.366C157.187 375.301 172.346 370.574 176.46 368.71C183.194 365.655 190.635 361.168 194.892 352.603C199.214 343.871 198.072 326.432 198.276 314.065C198.359 309.088 199.533 273.05 198.495 271.557Z" fill="black"/>
<path fill-rule="evenodd" clip-rule="evenodd" d="M105.115 288.08C106.454 286.705 118.086 278.875 120.923 276.649C123.13 274.908 123.056 275.571 127.185 277.223L175.248 296.447C179.294 298.066 179.452 297.401 181.532 300.801C184.023 304.863 186.601 308.69 189.164 312.759C191.144 315.902 195.287 321.841 196.796 324.75L197.71 272.696L105.956 235.995L105.115 288.08Z" fill="#FAEB1F"/>
<path fill-rule="evenodd" clip-rule="evenodd" d="M104.841 301.17C111.927 302.892 111.556 306.833 116.772 308.362C120.417 309.433 122.903 306.112 128.137 311.001C134.407 316.881 133.203 315.196 138.951 315.11C144.594 315.016 146.277 320.152 150.541 321.916C155.015 323.773 156.742 319.898 162.361 324.429C167.886 328.865 166.794 329.973 173.187 329.077C178.525 328.326 180.859 333.531 184.448 335.421C189.623 338.14 189.397 334.005 196.585 337.867L196.667 332.857L104.934 296.163L104.841 301.17Z" fill="white"/>
<path fill-rule="evenodd" clip-rule="evenodd" d="M105.066 307.424C111.987 309.613 111.988 313.351 116.902 314.646C120.57 315.614 122.887 312.303 128.286 317.427C134.544 323.373 133.578 321.305 139.072 321.333C144.607 321.366 146.301 326.474 150.598 328.193C154.927 329.925 156.608 326.247 162.105 330.513C167.238 334.486 166.534 336.339 172.886 335.326C178.342 334.463 180.584 339.54 184.171 341.531C189.104 344.277 189.334 340.553 196.224 343.887C196.611 340.261 197.766 339.155 193.557 337.811C190.961 336.99 190.026 338.159 187.84 337.933C181.631 337.291 180.52 331.301 174.954 330.576C170.197 329.955 169.585 333.222 163.146 326.716C157.536 321.053 155.696 325.382 150.678 323.375C145.701 321.385 144.006 315.698 138.369 316.748C131.581 318.032 131.397 314.483 126.495 311.193C120.999 307.506 119.791 312.453 113.65 308.292C111.475 306.82 110.539 304.867 108.045 303.619C103.713 301.453 104.795 303.488 105.066 307.424Z" fill="#00ABEB"/>
<path fill-rule="evenodd" clip-rule="evenodd" d="M106.327 314.066C111.619 316.091 112.984 320.716 117.766 321.094C121.287 321.379 123.568 319.031 128.536 324.074C134.311 329.94 134.628 327.361 139.149 327.604C144.754 327.903 146.126 332.723 150.476 334.462C154.835 336.207 156.201 332.56 161.764 336.615C166.101 339.77 166.533 342.897 172.373 341.665C177.411 340.591 179.545 344.535 183.08 347.185C187.81 350.725 189.436 347.218 194.714 349.421C195.445 346.588 197.337 345.461 193.581 344.161C190.87 343.226 189.988 344.406 187.844 344.24C181.684 343.744 180.448 337.693 174.968 336.888C170.18 336.188 169.566 339.611 162.992 332.994C157.371 327.338 155.563 331.68 150.555 329.678C145.609 327.7 143.873 321.995 138.267 323.047C131.5 324.316 131.242 320.805 126.34 317.47C120.908 313.786 119.499 318.789 113.392 314.495C111.259 312.995 110.344 311.061 107.765 309.847C103.828 307.999 105.669 310.575 106.327 314.066Z" fill="white"/>
<path fill-rule="evenodd" clip-rule="evenodd" d="M106.934 315.744C107.193 317.256 108.558 321.211 109.534 322.044C111.329 323.579 112.886 325.542 114.964 326.522C119.956 328.881 121.289 324.632 127.181 329.182C129.218 330.747 129.927 332.427 132.685 333.634C135.674 334.931 136.383 334.021 138.449 333.881C144.054 333.489 146.068 338.986 150.407 340.722C154.756 342.461 156.798 338.655 162.329 343.378C164.353 345.107 165.012 346.621 167.982 347.75C170.827 348.833 171.497 347.748 173.591 347.781C179.535 347.886 180.816 353.147 185.693 354.825C188.058 355.646 189.293 354.811 191.24 354.771C192.525 354.741 193.757 352.132 194.129 350.623C189.59 348.887 188.375 352.398 182.913 348.555C178.772 345.65 178.009 342.164 172.349 343.331C167.121 344.421 165.431 340.972 161.576 337.999C156.64 334.184 155.149 337.768 150.486 335.902C145.834 334.042 144.542 329.413 139.579 329.154C135.794 328.958 133.915 331.184 128.76 325.952C123.119 320.243 122.495 322.991 118.186 322.63C112.637 322.172 111.48 317.643 106.934 315.744Z" fill="#00ABEB"/>
<path fill-rule="evenodd" clip-rule="evenodd" d="M110.231 324.287C110.683 325.591 112.278 328.454 113.024 329.798C114.301 332.094 114.553 333.419 117.707 333.625C121.239 333.858 123.508 331.595 128.475 336.695C134.095 342.463 134.737 339.869 139.1 340.149C144.641 340.503 145.973 345.249 150.311 346.985C154.64 348.717 156.025 345.126 161.485 349.069C165.677 352.086 166.431 355.444 172.104 354.202C177.163 353.092 179.247 356.911 182.812 359.623C185.93 361.993 186.241 360.971 187.609 359.711C188.379 358.997 190.1 357.392 190.61 356.438C187.04 356.587 184.932 357.392 180.712 352.977C176.087 348.14 174.609 349.685 170.903 349.816C165.943 349.988 164.104 345.97 160.908 343.875C156.109 340.706 154.959 344.041 150.39 342.211C145.821 340.384 144.91 336.317 140.072 335.505C136.808 334.962 134.965 337.575 130.001 333.501C126.388 330.533 124.942 327.626 120.198 328.715C115.803 329.728 113.895 327.388 110.231 324.287Z" fill="white"/>
<path fill-rule="evenodd" clip-rule="evenodd" d="M115.935 334.707L119.135 339.735C128.413 338.711 128.526 346.525 134.941 346.831C137.738 346.962 138.469 345.391 142.57 347.519C145.899 349.248 146.551 351.794 150.137 353.227C153.692 354.65 154.419 352.713 157.667 353.57C161.837 354.68 162.559 356.878 165.344 358.992C171.685 363.79 172.053 356.167 181.083 364.413L184.592 362.273C180.574 360.189 179.893 357.45 176.118 356.031C172.415 354.652 171.763 357.151 167.353 355.275C163.298 353.539 162.736 350.634 158.835 349.118C155.102 347.683 154.409 350.098 150.217 348.42C146.066 346.761 145.44 343.875 141.835 342.33C137.812 340.596 137.181 343.093 133.091 341.569C128.709 339.931 128.136 336.998 124.542 335.414C120.666 333.692 119.914 335.925 115.935 334.707Z" fill="#00ABEB"/>
<path fill-rule="evenodd" clip-rule="evenodd" d="M120.341 341.244C120.687 341.951 122.337 344.009 122.965 344.84C124.86 347.334 124.323 346.086 126.652 347.813C129.282 349.763 130.592 352.626 134.532 353.079C137.494 353.422 138.04 351.562 142.393 353.746C145.795 355.459 146.468 358.068 150.075 359.512C153.64 360.938 154.41 358.95 157.709 359.883C162.067 361.127 162.619 363.381 165.5 365.432C169.359 368.178 170.872 366.468 173.459 366.57C175.594 366.664 175.474 367.546 177.236 366.626C177.862 366.309 179.643 365.534 180.008 365.112C175.708 359.12 170.763 364.743 164.819 360.149C162.232 358.149 161.24 355.765 157.369 355.011C154.568 354.47 153.959 356.259 150.154 354.738C146.4 353.235 145.857 351.077 143.139 349.353C139.348 346.952 138.144 348.468 135.608 348.431C129.506 348.331 124.813 338.729 120.341 341.244Z" fill="white"/>
<path fill-rule="evenodd" clip-rule="evenodd" d="M126.731 349.519C128.279 351.397 129.807 353.18 131.544 355.077C133.363 357.077 135.006 359.564 136.844 359.139C143.182 357.711 145.31 363.958 149.963 365.82C154.563 367.658 156.909 363.258 163.025 369.555C164.97 371.56 166.42 370.426 168.408 369.88C170.163 369.39 171.803 368.83 173.424 368.195C171.47 367.98 170.997 369.224 167.879 368.09C164.888 367.007 164.128 365.862 162.066 363.857C157.043 358.962 154.727 362.84 150.043 360.966C145.369 359.097 143.262 353.518 138.177 354.244C136.036 354.545 135.352 355.159 132.342 353.887C129.102 352.51 128.729 350.907 126.731 349.519Z" fill="#00ABEB"/>
<path fill-rule="evenodd" clip-rule="evenodd" d="M113.319 292.969L105.06 289.674C105.031 291.401 104.82 290.782 109.232 292.549C110.79 293.172 112.942 294.168 114.429 294.581L114.481 291.445L125.417 295.82L125.365 298.979L135.098 302.895L135.161 299.74L146.077 304.082L146.034 307.27L155.789 311.171L155.83 308.051L166.746 312.349L166.715 315.541L176.448 319.433L176.501 316.253L187.385 320.605L187.385 323.764L196.774 327.53C196.804 325.724 195.235 325.733 193.04 324.856C191.545 324.256 190.05 323.659 188.555 323.062V319.87L175.455 314.617L175.329 317.772L167.864 314.785L167.896 311.596L154.733 306.329L154.67 309.496L147.204 306.521L147.226 303.326L134.063 298.062L134 301.182L126.545 298.258L126.535 295.073L113.445 289.814L113.319 292.969Z" fill="white"/>
<path fill-rule="evenodd" clip-rule="evenodd" d="M115.007 295.503L105.022 291.543C105.005 293.218 105.452 292.92 107.167 293.582C109.122 294.341 115.037 296.889 116.118 297.082L116.169 293.979L123.655 296.975L123.624 300.109L136.786 305.431L136.839 302.248L144.346 305.251L144.293 308.432L157.445 313.693L157.518 310.576L165.016 313.507L164.963 316.689L178.136 321.97L178.189 318.787L185.675 321.783L185.644 324.893L196.747 329.404C196.773 327.824 196.663 328.109 195.052 327.509L186.834 324.233L186.813 321.022L177.132 317.149L177.017 320.306L166.195 315.978L166.143 312.788L156.473 308.887L156.358 312.02L145.452 307.68L145.463 304.481L135.772 300.606L135.677 303.772L124.866 299.446L124.794 296.214L115.112 292.341L115.007 295.503Z" fill="white"/>
<path fill-rule="evenodd" clip-rule="evenodd" d="M97.0991 353.36L202.978 395.712L202.57 395.549L202.309 410.743L97.015 368.627L96.8582 368.564L97.0991 353.36ZM224.265 399.102L224.263 399.238L214.384 403.51L223.993 415.534L223.991 415.713L223.729 416.257L203.728 408.28L203.079 412.528L96.0392 369.714L95.5486 365.019L75.538 356.981L75.2979 356.225L75.3006 356.057L85.1592 351.775L75.5701 339.761L75.5727 339.616L75.8452 339.042L103.792 350.21C104.006 350.648 103.835 353.976 103.824 354.652L195.84 391.437C195.862 390.751 195.833 387.401 196.069 387.121L224.005 398.307L224.265 399.102ZM197.176 389.564C197.975 390.212 200.197 392.667 200.816 393.449L197.146 391.993L197.176 389.564ZM98.8997 352.671C99.5355 352.403 101.809 351.745 102.62 351.74L102.538 354.151L98.8997 352.671ZM199.057 389.701L221.4 398.638L212.416 402.838L221.222 413.835L203.741 406.887C203.448 404.817 203.776 399.018 203.845 396.729C203.953 393.365 200.561 392.336 199.057 389.701ZM78.405 341.441L100.748 350.378L95.8619 351.796L95.624 363.64L78.1118 356.636C79.1062 355.681 86.7094 353.486 86.8614 352.571C87.0494 351.386 79.362 343.392 78.405 341.441Z" fill="black"/>
<path fill-rule="evenodd" clip-rule="evenodd" d="M199.065 389.702C200.569 392.336 203.962 393.363 203.854 396.727C203.784 399.016 203.457 404.815 203.749 406.887L221.23 413.833L212.424 402.836L221.408 398.638L199.065 389.702Z" fill="#FAEB1F"/>
<path fill-rule="evenodd" clip-rule="evenodd" d="M78.4085 341.44C79.3657 343.391 87.0529 351.385 86.8648 352.57C86.7129 353.485 79.1097 355.681 78.1152 356.635L95.6275 363.64L95.8656 351.796L100.751 350.377L78.4085 341.44Z" fill="#FAEB1F"/>
<path fill-rule="evenodd" clip-rule="evenodd" d="M137.115 360.762C139.056 363.06 146.89 369.771 149.901 370.975C152.923 372.183 160.844 371.775 162.856 371.056C158.73 365.307 154.156 368.905 149.964 367.23C145.74 365.54 141.438 358.389 137.115 360.762Z" fill="white"/>
<path fill-rule="evenodd" clip-rule="evenodd" d="M197.225 391.906L200.894 393.373C200.276 392.58 198.043 390.121 197.254 389.486L197.225 391.906Z" fill="#FAEB1F"/>
<path fill-rule="evenodd" clip-rule="evenodd" d="M98.8408 352.547L102.489 354.029L102.561 351.626C101.75 351.621 99.4769 352.279 98.8408 352.547Z" fill="#FAEB1F"/>
<path d="M202.574 395.542L97.1137 353.358L96.8623 368.557L202.323 410.742L202.574 395.542Z" fill="#FAEB1F"/>
<path d="M104.302 363.59L104.23 367.956L103.717 367.75C103.681 367.431 103.634 367.092 103.566 366.747C103.209 367.321 102.753 367.491 102.22 367.277C101.583 367.022 101.087 366.437 100.755 365.543C100.412 364.633 100.25 363.581 100.27 362.374C100.292 361.077 100.497 360.113 100.886 359.474C101.276 358.835 101.795 358.646 102.443 358.905C102.987 359.122 103.422 359.556 103.748 360.197C104.074 360.839 104.261 361.597 104.32 362.472L103.24 362.279C103.162 361.247 102.898 360.655 102.417 360.461C102.114 360.34 101.87 360.48 101.705 360.881C101.54 361.292 101.446 361.924 101.432 362.792C101.418 363.627 101.491 364.304 101.661 364.815C101.821 365.324 102.068 365.648 102.382 365.774C102.591 365.858 102.771 365.816 102.941 365.669C103.102 365.506 103.192 365.179 103.2 364.694L102.28 364.325L102.305 362.79L104.302 363.59Z" fill="black"/>
<path d="M108.706 363.114L106.385 362.185L106.357 363.856L108.177 364.584L108.151 366.119L106.332 365.391L106.303 367.174L108.624 368.102L108.597 369.715L105.115 368.324L105.25 360.165L108.732 361.558L108.706 363.114Z" fill="black"/>
<path d="M111.44 370.855L110.358 363.72L110.248 370.377L109.297 369.996L109.432 361.839L111.209 362.548L111.975 367.775L112.955 363.248L114.743 363.962L114.608 372.122L113.458 371.66L113.568 365.003L112.235 371.172L111.44 370.855Z" fill="black"/>
<path d="M118.125 365.316L119.506 374.08L118.272 373.587L117.997 371.772L116.429 371.144L116.087 372.712L115.094 372.316L116.787 364.779L118.125 365.316ZM116.725 369.754L117.76 370.167L117.295 367.108L116.725 369.754Z" fill="black"/>
<path d="M123.92 367.637L123.785 375.794L122.667 375.346L122.722 371.984L121.196 371.375L121.14 374.737L120.021 374.289L120.156 366.13L121.275 366.578L121.222 369.76L122.749 370.372L122.801 367.189L123.92 367.637Z" fill="black"/>
<path d="M127.818 374.165L127.765 377.381L126.615 376.921L126.75 368.761L128.893 369.62C129.291 369.779 129.614 369.986 129.841 370.224C130.079 370.479 130.273 370.84 130.423 371.321C130.573 371.79 130.649 372.287 130.641 372.784C130.625 373.764 130.331 374.364 129.759 374.567L130.599 378.515L129.334 378.008L128.634 374.49L127.818 374.165ZM127.876 370.689L127.842 372.765L128.542 373.045C128.772 373.136 128.94 373.181 129.045 373.167C129.151 373.153 129.247 373.078 129.334 372.919C129.41 372.768 129.455 372.569 129.459 372.334C129.463 372.107 129.424 371.888 129.354 371.678C129.273 371.463 129.181 371.314 129.088 371.242C128.994 371.158 128.817 371.064 128.556 370.962L127.876 370.689Z" fill="black"/>
<path d="M132.687 371.138L132.552 379.296L131.412 378.841L131.547 370.681L132.687 371.138Z" fill="black"/>
<path d="M134.732 377.12L134.682 380.156L133.521 379.692L133.656 371.534L135.58 372.304C136.009 372.475 136.331 372.685 136.559 372.923C136.776 373.168 136.981 373.522 137.152 373.989C137.323 374.456 137.409 374.978 137.4 375.552C137.393 375.949 137.334 376.322 137.234 376.668C137.133 377.015 136.992 377.265 136.811 377.407C136.64 377.554 136.471 377.636 136.302 377.648C136.144 377.652 135.882 377.582 135.537 377.442L134.732 377.12ZM134.725 375.632L135.457 375.923C135.75 376.04 135.94 376.003 136.058 375.835C136.177 375.655 136.244 375.431 136.249 375.149C136.254 374.822 136.196 374.526 136.074 374.285C135.941 374.038 135.754 373.861 135.493 373.756L134.761 373.464L134.725 375.632Z" fill="black"/>
<path d="M140.19 374.142L141.571 382.906L140.348 382.416L140.073 380.603L138.504 379.975L138.163 381.543L137.159 381.142L138.862 373.61L140.19 374.142ZM138.801 378.585L139.826 378.993L139.371 375.939L138.801 378.585Z" fill="black"/>
<path d="M146.014 376.469L145.879 384.629L144.75 384.176L144.806 380.814L143.29 380.207L143.234 383.57L142.115 383.121L142.25 374.964L143.369 375.412L143.316 378.592L144.832 379.199L144.885 376.019L146.014 376.469Z" fill="black"/>
<path d="M154.679 379.938L153.32 387.607L152.202 387.159L151.475 381.438L150.613 386.522L149.494 386.077L148.385 377.42L149.545 377.884L150.132 383.127C150.142 383.155 150.151 383.249 150.17 383.405C150.179 383.475 150.188 383.559 150.207 383.68L151.093 378.503L152.148 378.925L152.884 384.751C152.906 384.658 152.93 384.485 152.965 384.261L153.738 379.562L154.679 379.938Z" fill="black"/>
<path d="M156.368 380.604L156.233 388.762L155.094 388.307L155.229 380.149L156.368 380.604Z" fill="black"/>
<path d="M157.338 380.992L159.617 381.904C160.015 382.063 160.327 382.266 160.523 382.516C160.729 382.768 160.893 383.074 161.023 383.442C161.144 383.797 161.21 384.21 161.203 384.663C161.188 385.566 160.886 386.046 160.295 386.116C160.627 386.385 160.885 386.739 161.045 387.19C161.207 387.628 161.283 388.079 161.276 388.52C161.266 389.129 161.121 389.605 160.842 389.936C160.553 390.263 160.099 390.309 159.482 390.062L157.203 389.15L157.338 380.992ZM158.464 382.896L158.435 384.679L159.292 385.022C159.606 385.148 159.806 385.125 159.893 384.945C159.98 384.775 160.025 384.588 160.029 384.397C160.032 384.194 160.004 384 159.933 383.825C159.873 383.641 159.801 383.522 159.718 383.454C159.635 383.377 159.479 383.302 159.238 383.207L158.464 382.896ZM158.411 386.147L158.378 388.097L159.246 388.445C159.549 388.566 159.76 388.559 159.888 388.431C160.017 388.31 160.073 388.095 160.078 387.778C160.082 387.519 160.034 387.274 159.911 387.031C159.799 386.805 159.603 386.623 159.331 386.515L158.411 386.147Z" fill="black"/>
<path d="M164.499 383.859L165.891 392.63L164.657 392.135L164.382 390.322L162.813 389.694L162.472 391.262L161.479 390.863L163.171 383.329L164.499 383.859ZM163.11 388.301L164.145 388.717L163.68 385.655L163.11 388.301Z" fill="black"/>
<path d="M172.156 386.927L170.809 394.599L169.679 394.149L168.964 388.432L168.101 393.516L166.982 393.068L165.862 384.409L167.033 384.876L167.62 390.121C167.62 390.145 167.629 390.238 167.658 390.397C167.667 390.469 167.676 390.553 167.685 390.67L168.581 385.497L169.637 385.919L170.372 391.745C170.384 391.647 170.418 391.479 170.443 391.251L171.226 386.554L172.156 386.927Z" fill="black"/>
<path d="M174.893 388.017L176.285 396.786L175.051 396.291L174.776 394.478L173.207 393.85L172.866 395.418L171.862 395.017L173.565 387.485L174.893 388.017ZM173.504 392.46L174.539 392.873L174.074 389.814L173.504 392.46Z" fill="black"/>
<path d="M180.758 398.582L179.687 391.454L179.577 398.111L178.615 397.726L178.75 389.566L180.528 390.278L181.304 395.507L182.284 390.98L184.061 391.692L183.926 399.849L182.776 399.389L182.886 392.732L181.553 398.902L180.758 398.582Z" fill="black"/>
<path d="M188.887 393.619L188.803 398.699C188.79 399.523 188.727 400.111 188.606 400.459C188.494 400.825 188.28 401.067 187.972 401.205C187.665 401.333 187.276 401.312 186.806 401.126C186.346 400.941 185.971 400.678 185.693 400.328C185.425 399.994 185.221 399.583 185.092 399.1C184.963 398.617 184.9 397.966 184.914 397.143L184.998 392.065L186.232 392.558L186.148 397.635C186.14 398.076 186.156 398.412 186.205 398.636C186.243 398.867 186.324 399.059 186.458 399.238C186.581 399.411 186.748 399.535 186.946 399.614C187.156 399.698 187.334 399.712 187.472 399.642C187.599 399.581 187.696 399.46 187.741 399.273C187.786 399.098 187.823 398.771 187.831 398.309L187.915 393.232L188.887 393.619Z" fill="black"/>
<path d="M190.913 394.429L190.85 398.244L192.45 395.045L193.537 395.479L192.318 397.911L193.695 403.756L192.44 403.254L191.526 399.332L190.809 400.715L190.778 402.589L189.659 402.141L189.794 393.981L190.913 394.429Z" fill="black"/>
<path d="M197.602 397.096L197.576 398.708L196.373 398.227L196.265 404.772L195.105 404.308L195.213 397.763L194 397.278L194.027 395.665L197.602 397.096Z" fill="black"/>
<path d="M199.22 397.749L199.085 405.906L197.935 405.447L198.07 397.289L199.22 397.749Z" fill="black"/>
<path d="M382.264 270.392L292.703 306.216V325.265L382.264 289.441V270.392Z" fill="#51A54A"/>
<path fill-rule="evenodd" clip-rule="evenodd" d="M324.635 371.079C328.89 365.304 333.281 368.941 337.505 367.252C341.699 365.574 346.172 358.39 350.366 360.786C348.39 363.089 340.526 369.791 337.505 370.999C334.494 372.203 326.6 371.804 324.635 371.079ZM314.158 368.216C316.166 367.999 316.564 369.284 319.804 368.069C322.815 366.932 323.486 365.784 325.608 363.782C330.647 359.025 332.832 362.856 337.505 360.987C342.19 359.113 344.427 353.446 349.498 354.283C351.578 354.624 352.363 355.147 355.341 353.842C358.458 352.482 358.907 350.881 360.852 349.54C359.251 351.453 357.631 353.31 355.895 355.189C353.931 357.307 352.509 359.58 350.543 359.148C344.364 357.793 342.106 364.002 337.505 365.84C332.853 367.702 330.637 363.227 324.363 369.676C322.543 371.555 320.872 370.407 319.031 369.879C317.274 369.385 315.727 368.841 314.158 368.216ZM352.926 353.114C350.031 353.383 349.444 351.595 345.106 353.828C341.801 355.534 341.082 358.101 337.505 359.531C333.91 360.971 333.188 358.934 329.779 359.949C325.429 361.248 324.908 363.521 321.968 365.532C318.038 368.223 316.69 366.435 314.044 366.603C311.703 366.75 312.257 367.555 310.332 366.599C309.694 366.277 308.033 365.553 307.667 365.136C312.068 359.097 316.888 364.844 322.953 360.093C325.471 358.115 326.642 355.66 330.449 355.018C333.176 354.559 333.751 356.26 337.505 354.757C341.31 353.236 341.885 350.986 344.678 349.292C348.536 346.961 349.56 348.525 352.162 348.443C358.155 348.247 362.963 338.774 367.346 341.266C366.978 341.975 365.223 344.157 364.604 344.969C362.87 347.276 362.975 346.308 360.862 347.909C358.281 349.869 356.805 352.76 352.926 353.114ZM303.222 362.172C307.197 360.212 307.898 357.415 311.787 356.029C315.373 354.741 315.999 357.177 320.37 355.315C324.468 353.562 325.054 350.597 329.078 349.11C332.685 347.771 333.356 350.121 337.505 348.462C341.687 346.789 342.346 343.849 346.079 342.299C349.979 340.694 350.584 343.116 354.632 341.611C359.053 339.954 359.661 336.97 363.361 335.388C367.136 333.787 367.858 335.948 371.881 334.812L368.432 339.712C359.326 338.75 359.084 346.567 352.707 346.873C349.905 346.999 349.142 345.41 344.992 347.622C341.741 349.362 341.061 351.847 337.505 353.268C333.91 354.708 333.23 352.711 329.895 353.649C325.776 354.811 325.075 356.943 322.303 359.034C315.927 363.829 315.685 356.206 306.485 364.592L303.222 362.172ZM297.316 356.456C301.007 356.605 302.941 357.401 307.29 352.907C311.984 348.06 313.469 349.78 317.107 349.836C322.106 349.915 323.893 345.869 327.144 343.814C331.964 340.769 332.937 344.059 337.505 342.232C342.074 340.402 343.163 336.2 347.983 335.512C351.192 335.04 353.084 337.546 358.008 333.433C361.688 330.357 363.131 327.658 367.804 328.757C372.07 329.76 374.15 327.291 377.695 324.305C377.204 325.651 375.521 328.605 374.767 329.921C373.441 332.247 373.136 333.507 370.01 333.643C366.415 333.806 364.28 331.69 359.272 336.809C353.659 342.542 352.854 339.826 348.641 340.181C343.151 340.626 341.834 345.274 337.505 347.006C333.167 348.739 331.766 345.113 326.255 349.169C321.917 352.361 321.321 355.431 315.643 354.204C310.637 353.114 308.41 357.153 304.895 359.732C301.758 362.037 301.488 360.926 300.18 359.678C299.417 358.945 297.786 357.384 297.316 356.456ZM293.908 350.641C298.456 348.9 299.678 352.452 305.198 348.494C309.485 345.426 310.06 342.215 315.759 343.368C320.965 344.434 322.806 340.741 326.56 337.931C331.494 334.242 332.853 337.782 337.505 335.922C342.169 334.056 343.591 329.335 348.557 329.177C352.435 329.048 354.171 331.106 359.347 325.877C364.951 320.226 365.765 323.061 369.926 322.639C375.416 322.09 376.566 317.657 381.104 315.762C380.758 317.55 379.578 321.103 378.302 322.153C376.366 323.74 375.154 325.546 372.803 326.612C367.92 328.836 366.561 324.662 360.664 329.277C358.572 330.915 357.934 332.513 355.081 333.71C352.111 334.956 351.432 333.986 349.393 333.888C343.821 333.622 341.855 339.002 337.505 340.741C333.167 342.477 331.075 338.652 325.513 343.494C323.465 345.274 322.774 346.735 319.783 347.829C317.023 348.833 316.292 347.736 314.242 347.811C308.314 348.004 307.06 353.257 302.063 354.895C299.983 355.581 298.402 354.881 296.606 354.787C295.612 354.745 294.199 351.924 293.908 350.641ZM315.538 341.662C310.52 340.633 308.293 344.763 304.791 347.281C300.034 350.706 298.603 347.23 293.313 349.435C292.6 346.513 290.729 345.435 294.672 344.129C297.253 343.277 298.195 344.458 300.336 344.243C306.476 343.627 307.793 337.572 313.25 336.888C318.175 336.284 318.487 339.546 325.189 332.915C330.74 327.422 332.56 331.671 337.505 329.692C342.514 327.688 344.238 321.967 349.917 323.08C356.554 324.386 357.108 320.52 361.876 317.405C367.325 313.849 368.663 318.833 374.788 314.43C376.922 312.888 377.779 311.021 380.488 309.791C384.239 308.088 382.38 310.704 381.7 314.08C376.42 316.101 374.863 320.856 370.106 321.122C366.55 321.313 364.364 319.118 359.377 324.183C353.596 330.04 353.114 327.296 348.755 327.63C343.163 328.05 341.864 332.733 337.505 334.478C333.156 336.216 331.713 332.551 326.141 336.709C321.645 340.066 321.373 342.859 315.538 341.662ZM291.921 343.909C291.597 340.234 290.478 339.091 294.816 337.784C297.327 337.028 298.277 338.216 300.462 337.941C306.632 337.166 307.751 331.323 313.271 330.595C318.205 329.942 318.436 333.302 325.168 326.636C330.74 321.124 332.53 325.385 337.505 323.395C342.514 321.393 344.271 315.655 349.938 316.787C356.44 318.089 357.003 314.376 361.741 311.208C367.283 307.5 368.484 312.526 374.662 308.228C376.827 306.718 377.746 304.814 380.329 303.568C384.532 301.548 383.413 303.552 383.09 307.442C376.18 309.63 376.012 313.49 371.067 314.698C367.48 315.58 365.16 312.356 359.754 317.543C353.461 323.593 354.129 321.204 348.974 321.358C343.444 321.516 341.822 326.486 337.505 328.213C333.197 329.937 331.431 326.241 325.932 330.609C320.474 334.947 321.468 336.221 315.152 335.327C309.715 334.555 307.467 339.665 303.809 341.625C298.896 344.257 298.833 340.568 291.921 343.909ZM291.639 332.87L383.371 296.179V301.188C376.168 303.088 376.461 306.989 371.276 308.419C367.678 309.406 365.274 306.126 359.984 311.107C353.647 317.074 354.715 315.111 349.153 315.125C343.496 315.118 341.843 320.317 337.37 322.039C333.114 323.684 331.347 319.955 325.743 324.533C320.034 329.186 321.259 329.893 314.933 329.072C309.652 328.407 307.239 333.661 303.599 335.502C298.393 338.137 298.696 333.953 291.639 337.882V332.87ZM301.665 321.029L311.347 317.155L311.472 320.287L322.283 315.963L322.324 312.764L332.018 308.888L332.059 312.052L342.963 307.668L343.026 304.483L352.698 300.649L352.802 303.755L363.622 299.427L363.685 296.221L373.366 292.347L373.441 295.5L381.658 292.203C383.266 291.514 383.371 291.143 383.371 292.723L372.268 297.098L372.247 294.002L364.762 296.998V300.18L351.588 305.437V302.255L344.091 305.321L344.07 308.457L330.919 313.716V310.533L323.411 313.536V316.719L310.248 321.927L310.227 318.81L302.743 321.806V324.909C301.665 325.576 295.747 327.763 293.792 328.568C292.077 329.275 291.639 329.926 291.639 328.255L301.614 324.232L301.665 321.029ZM299.971 319.855L313.062 314.64L313.125 317.776L320.579 314.738L320.588 311.607L333.751 306.343L333.784 309.511L341.247 306.515L341.259 303.34L354.422 298.073L354.443 301.249L361.918 298.258L361.981 295.052L375.081 289.823L375.133 292.973C376.629 292.375 378.123 291.776 379.62 291.178C381.814 290.301 383.371 289.046 383.371 290.852L373.983 294.594L373.932 291.479L363.047 295.831V299.014L353.314 302.908L353.293 299.735L342.379 304.168L342.388 307.278L332.634 311.18V307.997L321.708 312.391L321.698 315.555L311.963 319.426V316.266L301.037 320.634L301.028 323.777C299.543 324.552 297.39 325.278 295.831 325.901C291.418 327.665 291.639 328.108 291.639 326.381L299.899 323.066L299.971 319.855ZM299.752 314.491C299.908 314.078 304.875 306.462 305.566 305.484C310.541 298.461 307.709 300.215 313.541 297.882L361.604 278.655C364.709 277.414 364.993 276.693 366.612 277.85L375.258 284.288L382.284 289.456L375.719 292.084L375.656 288.927L361.332 294.667L361.323 297.842L355.039 300.355L354.997 297.189L340.652 303.006L340.642 306.114L334.368 308.625L334.338 305.465L319.993 311.236L319.972 314.383L313.688 316.896L313.637 313.735L299.324 319.458L299.25 322.671L292.726 325.247L299.752 314.491ZM291.628 272.698L383.383 235.997L383.329 288.103C381.784 286.43 377.569 283.861 375.551 282.333C372.938 280.354 370.313 278.627 367.783 276.59C365.651 274.894 365.505 275.673 361.469 277.288L313.397 296.517C309.266 298.169 309.329 297.455 307.165 300.929C304.383 305.381 292.957 322.356 291.649 324.774L291.628 272.698ZM384.176 234.224L290.834 271.562C289.778 273.055 290.352 308.951 290.352 313.917C290.352 326.456 288.921 343.685 293.092 352.603C297.064 361.104 304.518 365.684 311.044 368.682C315.11 370.565 330.135 375.335 337.505 372.385C344.845 369.45 359.826 352.736 363.885 347.626C370.522 339.259 377.842 328.918 381.928 317.081C386.08 305.027 384.658 288.721 384.658 276.352C384.658 271.375 385.233 234.873 384.176 234.224Z" fill="black"/>
<path fill-rule="evenodd" clip-rule="evenodd" d="M291.659 324.768C292.967 322.35 304.393 305.375 307.175 300.923C309.339 297.449 309.276 298.163 313.407 296.511L361.468 277.287C365.515 275.667 365.661 274.888 367.784 276.589C370.325 278.619 372.948 280.346 375.561 282.327C377.579 283.855 381.794 286.424 383.342 288.097L383.393 235.991L291.638 272.692L291.659 324.768Z" fill="#FAEB1F"/>
<path fill-rule="evenodd" clip-rule="evenodd" d="M291.638 337.888C298.706 333.954 298.403 338.14 303.609 335.503C307.249 333.664 309.662 328.41 314.943 329.075C321.269 329.896 320.044 329.189 325.753 324.536C331.357 319.958 333.114 323.689 337.38 322.04C341.856 320.318 343.506 315.121 349.163 315.126C354.725 315.114 353.659 317.074 359.994 311.11C365.284 306.126 367.688 309.409 371.286 308.422C376.471 306.99 376.178 303.091 383.383 301.191V296.179L291.649 332.873L291.638 337.888Z" fill="white"/>
<path fill-rule="evenodd" clip-rule="evenodd" d="M291.897 343.913C298.809 340.574 298.87 344.263 303.773 341.636C307.434 339.676 309.682 334.566 315.128 335.334C321.444 336.227 320.451 334.953 325.908 330.616C331.407 326.248 333.174 329.944 337.472 328.224C341.799 326.493 343.409 321.527 348.941 321.369C354.105 321.21 353.435 323.599 359.73 317.549C365.137 312.362 367.445 315.591 371.043 314.705C375.989 313.494 376.156 309.637 383.057 307.45C383.38 303.563 384.509 301.554 380.306 303.575C377.713 304.825 376.803 306.725 374.63 308.237C368.451 312.537 367.248 307.511 361.706 311.216C356.97 314.387 356.416 318.095 349.914 316.793C344.247 315.661 342.49 321.399 337.472 323.406C332.494 325.396 330.716 321.131 325.133 326.647C318.412 333.308 318.172 329.951 313.248 330.602C307.727 331.33 306.608 337.172 300.438 337.947C298.253 338.222 297.292 337.039 294.792 337.791C290.454 339.097 291.562 340.245 291.897 343.913Z" fill="#00ABEB"/>
<path fill-rule="evenodd" clip-rule="evenodd" d="M293.295 349.437C298.585 347.232 300.018 350.709 304.775 347.284C308.278 344.766 310.505 340.636 315.523 341.665C321.357 342.862 321.629 340.069 326.126 336.714C331.697 332.553 333.14 336.219 337.49 334.481C341.849 332.735 343.145 328.052 348.74 327.632C353.099 327.299 353.581 330.043 359.361 324.186C364.349 319.12 366.534 321.316 370.088 321.125C374.845 320.859 376.404 316.106 381.682 314.083C382.362 310.706 384.224 308.091 380.47 309.794C377.763 311.024 376.904 312.89 374.773 314.433C368.645 318.836 367.318 313.847 361.861 317.408C357.092 320.523 356.538 324.389 349.899 323.082C344.223 321.969 342.498 327.693 337.49 329.695C332.544 331.674 330.724 327.425 325.174 332.917C318.471 339.549 318.157 336.287 313.233 336.891C307.775 337.575 306.458 343.632 300.321 344.246C298.177 344.46 297.237 343.28 294.654 344.131C290.714 345.438 292.585 346.516 293.295 349.437Z" fill="white"/>
<path fill-rule="evenodd" clip-rule="evenodd" d="M293.906 350.633C294.188 351.919 295.61 354.735 296.594 354.782C298.403 354.871 299.98 355.573 302.061 354.887C307.06 353.249 308.314 347.997 314.242 347.803C316.29 347.729 317.023 348.823 319.783 347.822C322.774 346.725 323.463 345.265 325.513 343.487C331.075 338.643 333.165 342.467 337.505 340.733C341.853 338.993 343.819 333.612 349.391 333.878C351.429 333.976 352.109 334.947 355.079 333.703C357.923 332.508 358.572 330.905 360.652 329.272C366.559 324.652 367.918 328.826 372.789 326.607C375.154 325.536 376.366 323.733 378.3 322.146C379.576 321.094 380.758 317.54 381.102 315.755C376.564 317.647 375.414 322.081 369.927 322.629C365.765 323.051 364.949 320.219 359.345 325.868C354.169 331.099 352.435 329.039 348.555 329.167C343.589 329.326 342.167 334.048 337.505 335.913C332.851 337.775 331.492 334.233 326.558 337.922C322.795 340.736 320.963 344.425 315.757 343.358C310.06 342.208 309.485 345.416 305.198 348.487C299.678 352.444 298.454 348.893 293.906 350.633Z" fill="#00ABEB"/>
<path fill-rule="evenodd" clip-rule="evenodd" d="M297.318 356.456C297.788 357.387 299.42 358.945 300.183 359.678C301.489 360.929 301.761 362.037 304.898 359.734C308.41 357.156 310.628 353.119 315.646 354.204C321.324 355.431 321.92 352.361 326.258 349.169C331.767 345.116 333.168 348.742 337.508 347.006C341.837 345.274 343.154 340.629 348.642 340.183C352.856 339.828 353.662 342.542 359.275 336.809C364.283 331.692 366.415 333.806 370.001 333.647C373.139 333.51 373.432 332.252 374.77 329.923C375.522 328.605 377.207 325.653 377.698 324.305C374.153 327.291 372.073 329.76 367.807 328.759C363.134 327.66 361.691 330.357 358.009 333.433C353.087 337.546 351.192 335.043 347.983 335.514C343.163 336.2 342.076 340.405 337.508 342.232C332.94 344.059 331.967 340.769 327.147 343.814C323.896 345.872 322.106 349.915 317.109 349.838C313.472 349.78 311.987 348.06 307.293 352.907C302.943 357.401 301.009 356.605 297.318 356.456Z" fill="white"/>
<path fill-rule="evenodd" clip-rule="evenodd" d="M303.159 362.194L306.42 364.614C315.622 356.228 315.861 363.851 322.238 359.054C325.019 356.958 325.72 354.828 329.83 353.671C333.165 352.73 333.854 354.723 337.44 353.288C340.996 351.867 341.685 349.38 344.927 347.641C349.088 345.425 349.84 347.021 352.642 346.892C359.021 346.587 359.26 338.772 368.367 339.734L371.816 334.831C367.792 335.968 367.071 333.807 363.296 335.408C359.596 336.99 358.988 339.974 354.576 341.626C350.519 343.136 349.914 340.716 346.014 342.321C342.281 343.871 341.634 346.804 337.44 348.481C333.29 350.14 332.62 347.791 329.013 349.132C324.989 350.619 324.403 353.584 320.316 355.332C315.934 357.196 315.317 354.758 311.721 356.048C307.842 357.432 307.132 360.232 303.159 362.194Z" fill="#00ABEB"/>
<path fill-rule="evenodd" clip-rule="evenodd" d="M307.682 365.132C308.038 365.554 309.711 366.273 310.349 366.595C312.271 367.552 311.717 366.747 314.058 366.6C316.704 366.432 318.054 368.219 321.973 365.533C324.922 363.517 325.434 361.247 329.795 359.945C333.203 358.93 333.915 360.972 337.52 359.527C341.085 358.102 341.818 355.53 345.111 353.829C349.461 351.592 350.045 353.379 352.942 353.111C356.82 352.756 358.295 349.865 360.867 347.91C362.989 346.304 362.885 347.273 364.621 344.965C365.237 344.153 366.995 341.971 367.348 341.267C362.98 338.77 358.16 348.248 352.179 348.439C349.575 348.521 348.551 346.958 344.692 349.289C341.902 350.983 341.327 353.232 337.52 354.753C333.768 356.256 333.193 354.555 330.463 355.015C326.658 355.656 325.488 358.111 322.967 360.09C316.902 364.84 312.083 359.096 307.682 365.132Z" fill="white"/>
<path fill-rule="evenodd" clip-rule="evenodd" d="M314.138 368.215C315.706 368.841 317.254 369.384 319.011 369.879C320.852 370.406 322.523 371.554 324.343 369.676C330.617 363.227 332.833 367.702 337.485 365.84C342.086 364.001 344.343 357.792 350.522 359.148C352.489 359.58 353.911 357.307 355.875 355.188C357.611 353.31 359.231 351.455 360.832 349.539C358.886 350.881 358.437 352.484 355.321 353.842C352.331 355.151 351.558 354.626 349.477 354.283C344.406 353.445 342.17 359.115 337.485 360.989C332.812 362.858 330.626 359.024 325.588 363.784C323.465 365.784 322.795 366.932 319.784 368.068C316.544 369.286 316.146 368.001 314.138 368.215Z" fill="#00ABEB"/>
<path fill-rule="evenodd" clip-rule="evenodd" d="M299.899 323.068L291.639 326.384C291.639 328.11 291.421 327.667 295.833 325.903C297.39 325.28 299.545 324.552 301.028 323.78V320.641L311.966 316.266V319.426L321.699 315.555L321.71 312.391L332.625 308.004L332.634 311.182L342.39 307.281L342.379 304.168L353.294 299.735L353.315 302.91L363.05 299.016V295.833L373.932 291.479L373.985 294.597L383.374 290.852C383.374 289.046 381.817 290.301 379.62 291.181C378.126 291.778 376.629 292.375 375.135 292.973L375.081 289.823L361.981 295.052L361.909 298.265L354.443 301.249L354.422 298.076L341.259 303.342L341.25 306.518L333.784 309.514L333.754 306.343L320.591 311.609L320.579 314.74L313.125 317.778L313.062 314.642L299.973 319.855L299.899 323.068Z" fill="white"/>
<path fill-rule="evenodd" clip-rule="evenodd" d="M301.624 324.231L291.638 328.259C291.649 329.925 292.089 329.276 293.802 328.567C295.759 327.762 301.675 325.575 302.753 324.908V321.805L310.24 318.811L310.261 321.928L323.424 316.72V313.538L330.929 310.535V313.717L344.083 308.456L344.104 305.322L351.6 302.254V305.436L364.772 300.179V296.997L372.259 294.003L372.28 297.097L383.383 292.724C383.383 291.145 383.279 291.513 381.668 292.202L373.451 295.501L373.376 292.346L363.695 296.22L363.632 299.428L352.812 303.756L352.708 300.648L343.036 304.484L342.973 307.669L332.069 312.054L332.027 308.887L322.334 312.763L322.293 315.964L311.482 320.288L311.357 317.154L301.675 321.028L301.624 324.231Z" fill="white"/>
<path fill-rule="evenodd" clip-rule="evenodd" d="M284.77 395.568L390.649 353.218L390.242 353.379L390.231 368.585L284.938 410.704L284.782 410.765L284.77 395.568ZM411.853 339.645V339.78L402.109 351.85L411.853 356.078V356.258L411.602 357.002L391.601 365.024L391.027 369.735L283.986 412.55L283.423 408.308L263.411 416.278L263.159 415.723V415.555L272.883 403.494L263.159 399.257V399.112L263.42 398.33L291.368 387.14C291.587 387.401 291.473 390.822 291.473 391.498L383.488 354.671C383.498 353.978 383.414 350.693 383.644 350.229L411.581 339.066L411.853 339.645ZM384.785 351.759C385.59 351.764 387.836 352.422 388.464 352.702L384.794 354.181L384.785 351.759ZM286.548 393.458C287.174 392.688 289.422 390.231 290.228 389.583L290.186 392.026L286.548 393.458ZM386.656 350.401L408.998 341.465L400.142 352.749L409.072 356.603L391.59 363.641C391.266 361.83 391.497 355.845 391.527 353.53C391.58 350.124 388.192 351.806 386.656 350.401ZM266.003 398.662L288.345 389.725L283.516 395.01L283.474 406.887L265.961 413.891C266.934 412.16 274.451 403.951 274.586 402.925C274.754 401.606 266.985 399.826 266.003 398.662Z" fill="black"/>
<path fill-rule="evenodd" clip-rule="evenodd" d="M386.659 350.399C388.195 351.806 391.584 350.124 391.53 353.53C391.5 355.845 391.27 361.828 391.593 363.639L409.073 356.601L400.146 352.746L409.001 341.462L386.659 350.399Z" fill="#FAEB1F"/>
<path fill-rule="evenodd" clip-rule="evenodd" d="M265.998 398.66C266.982 399.825 274.748 401.605 274.583 402.923C274.446 403.95 266.929 412.159 265.956 413.89L283.469 406.885L283.511 395.006L288.342 389.724L265.998 398.66Z" fill="#FAEB1F"/>
<path fill-rule="evenodd" clip-rule="evenodd" d="M324.638 371.076C326.604 371.802 334.498 372.199 337.507 370.995C340.531 369.786 348.392 363.087 350.38 360.779C346.186 358.383 341.701 365.572 337.507 367.247C333.284 368.939 328.894 365.299 324.638 371.076Z" fill="white"/>
<path fill-rule="evenodd" clip-rule="evenodd" d="M384.852 354.058L388.523 352.59C387.894 352.301 385.637 351.645 384.841 351.647L384.852 354.058Z" fill="#FAEB1F"/>
<path fill-rule="evenodd" clip-rule="evenodd" d="M286.479 393.374L290.128 391.939L290.158 389.51C289.353 390.149 287.105 392.604 286.479 393.374Z" fill="#FAEB1F"/>
<path d="M390.235 353.38L284.774 395.564V410.766L390.235 368.582V353.38Z" fill="#FAEB1F"/>
<path d="M292.068 399.951V404.317L291.556 404.522C291.514 404.235 291.463 403.939 291.388 403.654C291.044 404.501 290.595 405.031 290.062 405.246C289.424 405.5 288.921 405.318 288.577 404.7C288.221 404.074 288.044 403.164 288.044 401.956C288.044 400.658 288.23 399.543 288.607 398.603C288.984 397.662 289.496 397.063 290.145 396.804C290.688 396.587 291.128 396.671 291.463 397.044C291.795 397.417 291.996 398.017 292.068 398.834L290.99 399.501C290.897 398.544 290.625 398.169 290.145 398.362C289.841 398.484 289.601 398.815 289.445 399.342C289.287 399.879 289.203 400.577 289.203 401.447C289.203 402.282 289.287 402.891 289.466 403.26C289.631 403.633 289.882 403.759 290.197 403.633C290.406 403.549 290.583 403.365 290.751 403.085C290.906 402.796 290.99 402.401 290.99 401.916L290.071 402.285V400.749L292.068 399.951Z" fill="black"/>
<path d="M296.482 395.969L294.161 396.898V398.568L295.981 397.84V399.376L294.161 400.104V401.886L296.482 400.958V402.572L293 403.965V395.806L296.482 394.413V395.969Z" fill="black"/>
<path d="M299.3 401.433L298.109 395.25V401.909L297.159 402.289V394.13L298.935 393.418L299.782 397.966L300.68 392.72L302.47 392.004V400.164L301.32 400.626V393.966L300.096 401.113L299.3 401.433Z" fill="black"/>
<path d="M305.851 390.653L307.369 398.206L306.133 398.699L305.83 397.128L304.262 397.756L303.95 399.574L302.956 399.97L304.513 391.188L305.851 390.653ZM304.534 396.146L305.57 395.731L305.058 393.08L304.534 396.146Z" fill="black"/>
<path d="M311.648 388.341V396.5L310.531 396.946V393.584L309.004 394.195V397.557L307.885 398.005V389.846L309.004 389.398V392.58L310.531 391.969V388.786L311.648 388.341Z" fill="black"/>
<path d="M315.628 391.687V394.903L314.479 395.362V387.203L316.622 386.346C317.02 386.188 317.343 386.136 317.574 386.19C317.814 386.253 318.011 386.456 318.17 386.811C318.325 387.154 318.409 387.583 318.409 388.08C318.409 389.062 318.128 389.886 317.562 390.539L318.463 393.769L317.197 394.275L316.445 391.361L315.628 391.687ZM315.628 388.211V390.287L316.329 390.007C316.559 389.914 316.727 389.825 316.831 389.727C316.936 389.629 317.029 389.478 317.113 389.254C317.185 389.044 317.227 388.813 317.227 388.575C317.227 388.348 317.185 388.162 317.113 388.012C317.029 387.865 316.936 387.788 316.841 387.793C316.748 387.786 316.568 387.835 316.308 387.938L315.628 388.211Z" fill="black"/>
<path d="M320.413 384.832V392.991L319.274 393.449V385.289L320.413 384.832Z" fill="black"/>
<path d="M322.568 389.094V392.13L321.406 392.594V384.435L323.331 383.665C323.759 383.492 324.085 383.443 324.313 383.497C324.534 383.567 324.744 383.753 324.92 384.078C325.097 384.402 325.193 384.85 325.193 385.426C325.193 385.821 325.139 386.236 325.046 386.658C324.951 387.078 324.816 387.438 324.639 387.725C324.471 388.005 324.304 388.219 324.136 388.364C323.98 388.495 323.717 388.632 323.373 388.772L322.568 389.094ZM322.537 387.627L323.268 387.335C323.561 387.218 323.75 387.029 323.864 386.77C323.98 386.497 324.043 386.224 324.043 385.942C324.043 385.615 323.98 385.368 323.855 385.228C323.717 385.09 323.529 385.062 323.268 385.167L322.537 385.461V387.627Z" fill="black"/>
<path d="M327.919 381.828L329.434 389.381L328.21 389.871L327.907 388.298L326.339 388.926L326.025 390.744L325.021 391.145L326.59 382.36L327.919 381.828ZM326.611 387.316L327.635 386.905L327.135 384.252L326.611 387.316Z" fill="black"/>
<path d="M333.742 379.499V387.659L332.613 388.109V384.747L331.098 385.353V388.716L329.979 389.164V381.004L331.098 380.556V383.739L332.613 383.132V379.949L333.742 379.499Z" fill="black"/>
<path d="M342.408 376.035L341.186 384.685L340.067 385.131L339.252 380.063L338.477 385.768L337.358 386.216L336.115 378.553L337.274 378.088L337.944 382.797C337.954 382.816 337.965 382.902 337.986 383.04C337.996 383.105 338.007 383.18 338.028 383.283L338.822 377.47L339.878 377.048L340.705 382.214C340.726 382.104 340.746 381.915 340.777 381.666L341.468 376.411L342.408 376.035Z" fill="black"/>
<path d="M344.096 375.359V383.519L342.956 383.976V375.816L344.096 375.359Z" fill="black"/>
<path d="M345.044 374.97L347.322 374.06C347.72 373.899 348.035 373.854 348.232 373.943C348.442 374.029 348.609 374.2 348.744 374.461C348.87 374.716 348.942 375.07 348.942 375.52C348.942 376.424 348.651 377.14 348.065 377.679C348.4 377.679 348.661 377.824 348.828 378.141C348.996 378.447 349.079 378.829 349.079 379.27C349.079 379.879 348.942 380.465 348.672 381.013C348.388 381.566 347.939 381.972 347.322 382.22L345.044 383.13V374.97ZM346.194 375.955V377.737L347.05 377.394C347.364 377.271 347.562 377.089 347.646 376.841C347.73 376.606 347.772 376.384 347.772 376.193C347.772 375.99 347.741 375.822 347.667 375.705C347.604 375.572 347.532 375.511 347.448 375.509C347.364 375.497 347.208 375.548 346.966 375.646L346.194 375.955ZM346.194 379.205V381.158L347.062 380.81C347.364 380.689 347.574 380.516 347.699 380.285C347.825 380.066 347.876 379.807 347.876 379.492C347.876 379.233 347.825 379.028 347.699 378.885C347.583 378.75 347.385 378.729 347.113 378.839L346.194 379.205Z" fill="black"/>
<path d="M352.248 372.1L353.775 379.648L352.541 380.143L352.239 378.57L350.67 379.198L350.356 381.016L349.362 381.412L350.922 372.63L352.248 372.1ZM350.943 377.588L351.976 377.175L351.464 374.524L350.943 377.588Z" fill="black"/>
<path d="M359.887 369.04L358.674 377.685L357.545 378.136L356.74 373.063L355.965 378.768L354.848 379.216L353.594 371.558L354.764 371.089L355.432 375.798C355.432 375.821 355.444 375.907 355.474 376.04C355.486 376.106 355.495 376.18 355.507 376.288L356.312 370.471L357.366 370.048L358.192 375.214C358.204 375.107 358.234 374.913 358.255 374.668L358.956 369.411L359.887 369.04Z" fill="black"/>
<path d="M362.598 367.951L364.125 375.499L362.891 375.992L362.587 374.421L361.02 375.049L360.706 376.867L359.703 377.268L361.269 368.481L362.598 367.951ZM361.29 373.439L362.326 373.024L361.814 370.376L361.29 373.439Z" fill="black"/>
<path d="M368.643 373.705L367.463 367.52V374.179L366.5 374.562V366.402L368.278 365.693L369.137 370.236L370.035 364.99L371.813 364.279V372.438L370.661 372.898V366.239L369.439 373.388L368.643 373.705Z" fill="black"/>
<path d="M376.614 362.347V367.424C376.614 368.25 376.563 368.88 376.449 369.321C376.344 369.769 376.135 370.18 375.832 370.56C375.528 370.929 375.141 371.22 374.671 371.407C374.21 371.591 373.833 371.629 373.552 371.505C373.279 371.388 373.072 371.146 372.935 370.77C372.8 370.397 372.726 369.804 372.726 368.98V363.903L373.959 363.408V368.488C373.959 368.927 373.98 369.246 374.034 369.428C374.075 369.627 374.159 369.75 374.294 369.82C374.42 369.895 374.587 369.883 374.785 369.804C374.995 369.72 375.172 369.594 375.309 369.414C375.435 369.251 375.528 369.057 375.57 368.836C375.611 368.628 375.644 368.276 375.644 367.814V362.736L376.614 362.347Z" fill="black"/>
<path d="M378.661 361.533V365.348L380.199 360.917L381.286 360.483L380.116 363.853L381.579 368.526L380.325 369.028L379.352 365.885L378.661 367.819V369.693L377.544 370.141V361.981L378.661 361.533Z" fill="black"/>
<path d="M385.278 358.872V360.484L384.075 360.965V367.512L382.916 367.977V361.429L381.703 361.915V360.302L385.278 358.872Z" fill="black"/>
<path d="M386.949 358.218V366.377L385.797 366.837V358.677L386.949 358.218Z" fill="black"/>
<path d="M56.3917 157.192L244.364 72.3846L187.972 -3L0 72.3846L56.3917 157.192Z" fill="#D9AB76"/>
<path d="M56.3768 157.193L244.348 232.578L234.951 194.886L9.38379 110.078L56.3768 157.193Z" fill="#EABB84"/>
<path d="M432.312 157.188L244.341 232.573L281.936 326.805L488.705 223.15L432.312 157.188Z" fill="#BE9769"/>
</g>
</g>
<defs>
<clipPath id="clip0">
<rect width="512" height="487" fill="white"/>
</clipPath>
<clipPath id="clip1">
<rect width="512" height="490" fill="white" transform="translate(0 -3)"/>
</clipPath>
</defs>
</svg>
