<?xml version="1.0" encoding="UTF-8" standalone="no"?>
<!-- Created with Inkscape (http://www.inkscape.org/) -->

<svg
   width="207.66441mm"
   height="134.08333mm"
   viewBox="0 0 207.66441 134.08333"
   version="1.1"
   id="svg5"
   inkscape:version="1.1 (c68e22c387, 2021-05-23)"
   sodipodi:docname="menggambar.svg"
   xmlns:inkscape="http://www.inkscape.org/namespaces/inkscape"
   xmlns:sodipodi="http://sodipodi.sourceforge.net/DTD/sodipodi-0.dtd"
   xmlns="http://www.w3.org/2000/svg"
   xmlns:svg="http://www.w3.org/2000/svg">
  <sodipodi:namedview
     id="namedview7"
     pagecolor="#505050"
     bordercolor="#eeeeee"
     borderopacity="1"
     inkscape:pageshadow="0"
     inkscape:pageopacity="0"
     inkscape:pagecheckerboard="0"
     inkscape:document-units="mm"
     showgrid="false"
     inkscape:zoom="0.52410025"
     inkscape:cx="-300.51503"
     inkscape:cy="695.47764"
     inkscape:window-width="1920"
     inkscape:window-height="1017"
     inkscape:window-x="-8"
     inkscape:window-y="-8"
     inkscape:window-maximized="1"
     inkscape:current-layer="g15" />
  <defs
     id="defs2">
    <clipPath
       clipPathUnits="userSpaceOnUse"
       id="clipPath25">
      <path
         d="M 0,500 H 750 V 0 H 0 Z"
         id="path23" />
    </clipPath>
    <clipPath
       clipPathUnits="userSpaceOnUse"
       id="clipPath123">
      <path
         d="m 571.2,287.121 h 7.399 v -6.267 H 571.2 Z"
         id="path121" />
    </clipPath>
    <clipPath
       clipPathUnits="userSpaceOnUse"
       id="clipPath139">
      <path
         d="m 537.43,297.123 h 25.749 V 273.521 H 537.43 Z"
         id="path137" />
    </clipPath>
    <clipPath
       clipPathUnits="userSpaceOnUse"
       id="clipPath155">
      <path
         d="m 519.508,191.493 h 7.228 v -6.842 h -7.228 z"
         id="path153" />
    </clipPath>
    <clipPath
       clipPathUnits="userSpaceOnUse"
       id="clipPath171">
      <path
         d="m 498.875,208.721 h 19.679 v -18.196 h -19.679 z"
         id="path169" />
    </clipPath>
    <clipPath
       clipPathUnits="userSpaceOnUse"
       id="clipPath203">
      <path
         d="m 191.748,120.479 h 9.444 v -9.435 h -9.444 z"
         id="path201" />
    </clipPath>
    <clipPath
       clipPathUnits="userSpaceOnUse"
       id="clipPath219">
      <path
         d="m 198.414,145.011 h 19.54 v -20.548 h -19.54 z"
         id="path217" />
    </clipPath>
    <clipPath
       clipPathUnits="userSpaceOnUse"
       id="clipPath235">
      <path
         d="m 146.099,257.879 h 7.1 v -5.308 h -7.1 z"
         id="path233" />
    </clipPath>
    <clipPath
       clipPathUnits="userSpaceOnUse"
       id="clipPath251">
      <path
         d="m 148.12,246.383 h 20.016 V 227.969 H 148.12 Z"
         id="path249" />
    </clipPath>
  </defs>
  <g
     inkscape:label="Lapis 1"
     inkscape:groupmode="layer"
     id="layer1"
     transform="translate(-0.60797288,-1.5239887)">
    <g
       id="g15"
       inkscape:label="5259949"
       transform="matrix(0.35277777,0,0,-0.35277777,-241.52484,189.57425)">
      <g
         id="g19"
         transform="matrix(0.94318164,0,0,0.94318164,627.47386,107.22115)">
        <g
           id="g21"
           clip-path="url(#clipPath25)">
          <g
             id="g27"
             transform="translate(616.4781,80.0075)">
            <path
               d="m 0,0 h -488.266 c 0,0 -48.881,192.582 161.921,256.07 C -115.544,319.558 68.581,127.472 0,0"
               style="fill:#d4ede9;fill-opacity:1;fill-rule:nonzero;stroke:none"
               id="path29" />
          </g>
          <g
             id="g31"
             transform="translate(355.5729,419.1852)">
            <path
               d="m 0,0 c -41.853,-5.151 -81.626,-30.563 -84.981,-100.263 l 41.497,-5.342 c 0,0 7.703,23.632 20.872,28.092 13.17,4.459 28.326,-2.997 32.303,-14.302 3.976,-11.305 4.97,-21.99 -13.915,-34.663 -18.885,-12.672 -41.248,-25.842 -34.539,-96.659 h 58.89 v 15.307 c 0.72,12.075 3.45,28.048 12.424,35.321 15.406,12.487 49.489,32.955 55.565,68.643 C 101.191,-27.066 48.454,5.963 0,0 m -38.763,-275.566 h 58.89 v 36.278 h -58.89 z"
               style="fill:#f7cf4d;fill-opacity:1;fill-rule:nonzero;stroke:none"
               id="path33" />
          </g>
          <path
             d="m 612.379,246.665 h 4.1 V 80.008 h -4.1 z"
             style="fill:#0b4665;fill-opacity:1;fill-rule:nonzero;stroke:none"
             id="path35" />
          <g
             id="g37"
             transform="translate(666.1754,219.903)">
            <path
               d="M 0,0 H -49.697 V 26.762 H 0 L 7.827,13.381 Z"
               style="fill:#f8a706;fill-opacity:1;fill-rule:nonzero;stroke:none"
               id="path39" />
          </g>
          <g
             id="g41"
             transform="translate(674.0026,171.946)">
            <path
               d="M 0,0 H -57.524 V 30.314 H 0 L 12.548,15.157 Z"
               style="fill:#f8a706;fill-opacity:1;fill-rule:nonzero;stroke:none"
               id="path43" />
          </g>
          <g
             id="g45"
             transform="translate(575.2926,191.4518)">
            <path
               d="M 0,0 H 37.086 V 24.786 H 0 L -11.368,12.393 Z"
               style="fill:#f8a706;fill-opacity:1;fill-rule:nonzero;stroke:none"
               id="path47" />
          </g>
          <g
             id="g49"
             transform="translate(521.4664,343.426)">
            <path
               d="m 0,0 c -0.143,0 -0.285,-0.002 -0.428,-0.007 -5.095,-0.183 -10.961,-3.853 -10.719,-13.597 0.112,-4.58 3.792,-8.527 10.359,-11.115 2.667,-1.051 5.824,-1.87 9.364,-2.405 2.041,4.184 3.664,9.525 3.375,15.684 C 11.599,-3.931 5.611,0 0,0 m 2.266,-38.732 c -0.272,0 -0.541,0.109 -0.739,0.325 -0.373,0.407 -0.344,1.04 0.063,1.412 0.058,0.055 3.2,2.985 6.014,8.015 -3.436,0.554 -6.508,1.369 -9.125,2.4 -7.363,2.902 -11.492,7.492 -11.626,12.926 -0.259,10.486 6.166,15.413 12.648,15.645 6.721,0.227 14.026,-4.354 14.448,-13.337 0.295,-6.301 -1.235,-11.74 -3.243,-16.06 20.479,-2.345 52.099,4.397 76.322,29.106 0.386,0.395 1.021,0.401 1.414,0.014 C 88.837,1.328 88.843,0.694 88.456,0.3 63.511,-25.146 30.771,-31.892 9.768,-29.288 6.761,-34.922 3.204,-38.229 2.938,-38.471 2.747,-38.646 2.506,-38.732 2.266,-38.732"
               style="fill:#0b4169;fill-opacity:1;fill-rule:nonzero;stroke:none"
               id="path51" />
          </g>
          <g
             id="g53"
             transform="translate(163.7287,326.1257)">
            <path
               d="m 0,0 c -0.074,0 -0.147,0 -0.222,-0.001 -7.682,-0.119 -18.697,-6.69 -22.239,-13.267 -3.522,-6.542 -4.459,-12.414 -2.783,-17.453 0.813,-2.445 2.249,-4.734 4.296,-6.856 12.666,6.828 24.159,15.839 27.828,25.788 1.236,3.351 1.227,6.268 -0.026,8.434 C 5.564,-1.128 3.258,0 0,0 m -69.109,-53.301 c -13.519,0 -24.691,3.75 -29.541,10.872 -3.753,5.512 -5.376,15.37 8.209,31.036 0.362,0.417 0.992,0.462 1.411,0.1 0.417,-0.362 0.462,-0.993 0.1,-1.411 -10.093,-11.639 -12.883,-21.528 -8.067,-28.599 7.52,-11.043 32.944,-13.213 56.674,-4.839 5.594,1.975 11.659,4.548 17.541,7.597 -2.048,2.222 -3.505,4.623 -4.36,7.193 -1.857,5.582 -0.874,11.986 2.92,19.032 3.893,7.23 15.541,14.188 23.969,14.318 4.057,0.091 7.152,-1.441 8.837,-4.352 1.562,-2.697 1.622,-6.199 0.173,-10.127 -2.801,-7.593 -11.585,-17.634 -28.095,-26.622 2.452,-2.134 5.57,-4.082 9.339,-5.832 20.171,-9.363 48.248,6.508 48.529,6.669 0.479,0.276 1.091,0.11 1.365,-0.369 0.275,-0.479 0.109,-1.09 -0.37,-1.365 -0.295,-0.17 -7.357,-4.191 -17.11,-7.08 -9.064,-2.686 -22.191,-4.806 -33.256,0.331 -4.228,1.963 -7.693,4.184 -10.376,6.645 -5.362,-2.793 -11.491,-5.471 -18.44,-7.923 -10.071,-3.555 -20.3,-5.273 -29.452,-5.274"
               style="fill:#0b4169;fill-opacity:1;fill-rule:nonzero;stroke:none"
               id="path55" />
          </g>
          <g
             id="g57"
             transform="translate(547.152,81.2507)">
            <path
               d="m 0,0 c 0,0 7.703,-3.728 13.667,7.454 3.728,5.715 4.721,3.231 5.219,15.902 0.248,7.456 3.975,11.181 6.46,13.666 2.485,2.486 3.726,9.693 2.733,12.922 -0.994,3.231 -2.92,6.399 3.976,13.294 6.894,6.896 10.063,13.977 10.622,21.991 0.559,8.013 -3.168,10.995 -12.114,3.541 C 21.618,81.315 15.468,69.574 14.536,68.456 13.604,67.338 7.082,61.188 7.269,53.547 7.455,45.906 5.964,42.179 4.659,40.502 3.354,38.824 -2.126,38.39 2.758,16.616 1.863,11.988 -4.846,6.46 0,0"
               style="fill:#188991;fill-opacity:1;fill-rule:nonzero;stroke:none"
               id="path59" />
          </g>
          <g
             id="g61"
             transform="translate(547.152,81.2507)">
            <path
               d="m 0,0 c 0,0 4.659,10.498 3.168,15.529 -1.49,5.033 -7.641,7.641 -7.641,7.641 0,0 -0.373,13.791 -2.981,19.009 -2.609,5.218 -10.064,12.114 -10.81,14.35 -0.745,2.237 0.187,9.132 -6.336,14.536 -6.522,5.405 -11.74,10.436 -12.858,12.114 -1.118,1.676 -8.387,3.913 -5.777,-15.655 1.118,-2.982 7.454,-13.231 9.504,-17.518 2.049,-4.286 2.236,-9.131 1.491,-13.977 -0.745,-4.845 1.677,-9.69 6.895,-13.045 5.218,-3.354 6.336,-3.169 7.081,-8.386 C -17.518,9.38 -10.063,-1.553 0,0"
               style="fill:#0b4169;fill-opacity:1;fill-rule:nonzero;stroke:none"
               id="path63" />
          </g>
          <g
             id="g65"
             transform="translate(544.4586,81.2946)">
            <path
               d="M 0,0 -25.883,59.342 0.914,0.407 C 1.028,0.156 0.917,-0.141 0.666,-0.255 0.414,-0.369 0.118,-0.258 0.004,-0.007 0.003,-0.005 0.001,-0.001 0,0"
               style="fill:#ffffff;fill-opacity:1;fill-rule:nonzero;stroke:none"
               id="path67" />
          </g>
          <g
             id="g69"
             transform="translate(550.1383,83.3923)">
            <path
               d="m 0,0 c 2.007,6.12 3.986,12.253 5.896,18.404 0.947,3.077 1.895,6.158 2.719,9.26 0.809,3.124 1.677,6.232 2.599,9.322 1.844,6.181 3.915,12.297 6.326,18.281 1.252,2.971 2.519,5.942 4.039,8.789 1.52,2.839 3.16,5.637 5.253,8.098 C 24.771,69.667 23.17,66.852 21.69,63.998 20.209,61.138 18.982,58.155 17.772,55.174 15.443,49.171 13.454,43.039 11.694,36.846 10.813,33.749 9.987,30.638 9.222,27.512 8.431,24.374 7.522,21.282 6.613,18.187 4.782,12.004 2.882,5.846 0.952,-0.308 0.869,-0.57 0.589,-0.718 0.325,-0.635 0.062,-0.552 -0.085,-0.271 -0.002,-0.008 -0.002,-0.007 0,-0.002 0,0"
               style="fill:#ffffff;fill-opacity:1;fill-rule:nonzero;stroke:none"
               id="path71" />
          </g>
          <g
             id="g73"
             transform="translate(549.3678,98.3815)">
            <path
               d="m 0,0 c -0.247,0 -0.463,0.185 -0.495,0.437 -0.021,0.16 -2.066,16.277 -2.928,35.921 -0.796,18.151 -0.716,43.116 4.192,58.972 0.081,0.264 0.36,0.415 0.625,0.33 0.263,-0.081 0.412,-0.361 0.33,-0.625 C -7.594,64.926 0.415,1.204 0.497,0.563 0.532,0.29 0.339,0.039 0.064,0.004 0.043,0.001 0.021,0 0,0"
               style="fill:#0b4169;fill-opacity:1;fill-rule:nonzero;stroke:none"
               id="path75" />
          </g>
          <g
             id="g77"
             transform="translate(550.6139,193.5641)">
            <path
               d="M 0,0 C 0,0 2.626,9.69 5.608,12.797 8.59,15.902 12.44,13.667 11.322,7.454 10.204,1.242 0,0 0,0"
               style="fill:#0b4169;fill-opacity:1;fill-rule:nonzero;stroke:none"
               id="path79" />
          </g>
          <g
             id="g81"
             transform="translate(547.7955,180.3737)">
            <path
               d="M 0,0 C 0,0 6.122,9.463 8.578,9.587 11.035,9.712 13.022,7.351 10.414,3.251 7.805,-0.85 -0.613,-4.952 -0.613,-4.952 Z"
               style="fill:#0b4169;fill-opacity:1;fill-rule:nonzero;stroke:none"
               id="path83" />
          </g>
          <g
             id="g85"
             transform="translate(546.9586,173.1667)">
            <path
               d="m 0,0 c 0,0 -5.335,3.624 -6.454,6.917 -1.118,3.293 -0.745,8.138 1.243,8.138 1.988,0 4.657,-4.722 5.435,-10.747 z"
               style="fill:#0b4169;fill-opacity:1;fill-rule:nonzero;stroke:none"
               id="path87" />
          </g>
          <g
             id="g89"
             transform="translate(549.3336,188.779)">
            <path
               d="M 0,0 C 0,0 -3.862,3.729 -3.923,7.891 -3.983,12.053 -2.229,15.221 0,12.923 2.229,10.624 0.391,1.609 0.391,1.609 Z"
               style="fill:#0b4169;fill-opacity:1;fill-rule:nonzero;stroke:none"
               id="path91" />
          </g>
          <g
             id="g93"
             transform="translate(546.2184,161.0729)">
            <path
               d="M 0,0 C 0,0 4.289,7.768 5.903,9.817 7.519,11.867 11.618,12.55 10.5,5.966 9.382,-0.619 1.365,-4.656 0,-4.595 Z"
               style="fill:#0b4169;fill-opacity:1;fill-rule:nonzero;stroke:none"
               id="path95" />
          </g>
          <g
             id="g97"
             transform="translate(546.2184,162.069)">
            <path
               d="m 0,0 c 0,0 -1.489,4.41 -2.979,5.528 -1.492,1.118 -5.716,0.56 -4.288,-5.217 1.43,-5.778 6.144,-6.586 7.11,-5.903 C 0.81,-4.908 0,-5.591 0,-5.591 Z"
               style="fill:#0b4169;fill-opacity:1;fill-rule:nonzero;stroke:none"
               id="path99" />
          </g>
          <g
             id="g101"
             transform="translate(546.2184,140.9294)">
            <path
               d="m 0,0 c 0,0 2.861,10.518 5.346,13.561 2.483,3.043 5.473,3.416 5.344,-1.926 C 10.562,6.293 1.628,-0.355 0.038,-1.225 Z"
               style="fill:#0b4169;fill-opacity:1;fill-rule:nonzero;stroke:none"
               id="path103" />
          </g>
          <g
             id="g105"
             transform="translate(546.6588,130.3786)">
            <path
               d="m 0,0 c 0,0 4.345,7.152 6.581,8.146 2.236,0.995 4.721,-5.901 0,-9.504 C 1.859,-4.961 0.257,-4.409 0.257,-4.409 Z"
               style="fill:#0b4169;fill-opacity:1;fill-rule:nonzero;stroke:none"
               id="path107" />
          </g>
          <g
             id="g109"
             transform="translate(546.6588,125.6657)">
            <path
               d="m 0,0 c 0,0 -5.905,0.498 -8.888,4.722 -2.981,4.223 -1.573,7.951 0.891,7.764 C -5.533,12.3 -1.86,6.212 0,0"
               style="fill:#0b4169;fill-opacity:1;fill-rule:nonzero;stroke:none"
               id="path111" />
          </g>
          <g
             id="g113"
             transform="translate(546.0612,142.0036)">
            <path
               d="m 0,0 c 0,0 -3.031,-0.445 -7.399,4.219 -4.369,4.664 -2.693,9.136 1.284,7.087 C -2.139,9.256 0.157,0.684 0.157,0.684 Z"
               style="fill:#0b4169;fill-opacity:1;fill-rule:nonzero;stroke:none"
               id="path115" />
          </g>
          <g
             id="g117">
            <g
               id="g119" />
            <g
               id="g131">
              <g
                 clip-path="url(#clipPath123)"
                 opacity="0.5"
                 id="g129">
                <g
                   transform="translate(572.4977,281.2775)"
                   id="g127">
                  <path
                     d="M 0,0 C 0,0 5.094,-1.491 5.84,1.118 6.585,3.728 5.591,4.597 4.722,5.342 3.852,6.088 -0.869,6.212 -1.242,4.224 -1.615,2.236 0,0 0,0"
                     style="fill:#188991;fill-opacity:1;fill-rule:nonzero;stroke:none"
                     id="path125" />
                </g>
              </g>
            </g>
          </g>
          <g
             id="g133">
            <g
               id="g135" />
            <g
               id="g147">
              <g
                 clip-path="url(#clipPath139)"
                 opacity="0.5"
                 id="g145">
                <g
                   transform="translate(555.1656,275.6867)"
                   id="g143">
                  <path
                     d="m 0,0 c 0,0 8.014,4.605 8.014,11.435 0,6.829 -13.418,9.811 -16.959,9.997 -3.541,0.186 -10.064,-5.964 -8.573,-17.704 C -16.959,0.187 -7.269,-5.218 0,0"
                     style="fill:#188991;fill-opacity:1;fill-rule:nonzero;stroke:none"
                     id="path141" />
                </g>
              </g>
            </g>
          </g>
          <g
             id="g149">
            <g
               id="g151" />
            <g
               id="g163">
              <g
                 clip-path="url(#clipPath155)"
                 opacity="0.5"
                 id="g161">
                <g
                   transform="translate(520.9381,184.8669)"
                   id="g159">
                  <path
                     d="M 0,0 C 0,0 4.348,-1.49 5.591,3.354 6.833,8.2 2.112,6.337 1.242,5.964 0.372,5.591 -3.479,2.236 0,0"
                     style="fill:#188991;fill-opacity:1;fill-rule:nonzero;stroke:none"
                     id="path157" />
                </g>
              </g>
            </g>
          </g>
          <g
             id="g165">
            <g
               id="g167" />
            <g
               id="g179">
              <g
                 clip-path="url(#clipPath171)"
                 opacity="0.5"
                 id="g177">
                <g
                   transform="translate(509.3834,190.5817)"
                   id="g175">
                  <path
                     d="M 0,0 C 0,0 8.076,-0.496 9.07,7.703 10.063,15.903 3.479,18.14 -0.994,18.14 -5.467,18.14 -12.797,15.059 -9.815,5.045 -9.193,2.36 -6.336,-0.497 0,0"
                     style="fill:#188991;fill-opacity:1;fill-rule:nonzero;stroke:none"
                     id="path173" />
                </g>
              </g>
            </g>
          </g>
          <g
             id="g181"
             transform="translate(146.1027,82.2438)">
            <path
               d="m 0,0 c 0,0 14.327,-1.863 17.041,15.282 2.713,17.145 0.291,14.722 2.9,20.499 2.609,5.778 5.404,10.995 5.404,21.618 0,10.623 2.423,15.079 4.845,17.789 2.423,2.711 5.778,9.42 4.846,18.179 -0.932,8.759 0.932,18.449 2.796,24.973 1.863,6.522 2.608,14.722 0.931,19.94 -1.677,5.218 -9.318,2.423 -14.536,-5.591 C 19.009,124.676 10.25,105.107 7.082,100.449 3.914,95.79 2.236,84.218 3.354,75.188 4.473,66.158 4.683,57.586 1.13,54.045 -2.422,50.504 -4.286,36.713 -1.677,26.836 0.932,16.959 -5.032,2.05 0,0"
               style="fill:#188991;fill-opacity:1;fill-rule:nonzero;stroke:none"
               id="path183" />
          </g>
          <g
             id="g185"
             transform="translate(147.2208,82.2438)">
            <path
               d="m 0,0 c 0,0 0.373,12.672 -3.106,16.896 -3.478,4.225 -0.497,16.152 -13.915,33.545 -13.417,17.394 2.485,35.533 -9.442,50.442 -11.927,14.909 -11.927,21.618 -11.927,30.066 0,8.448 -1.242,19.7 -4.97,21.529 -3.727,1.829 -7.703,-10.596 -6.957,-18.795 0.745,-8.201 -12.922,-26.09 -7.704,-42.243 5.219,-16.151 5.964,-26.09 5.964,-31.059 0,-4.97 0.248,-10.934 3.727,-13.915 3.479,-2.982 15.158,-13.914 8.2,-19.382 C -47.087,21.617 -33.421,0.497 0,0"
               style="fill:#0b4169;fill-opacity:1;fill-rule:nonzero;stroke:none"
               id="path187" />
          </g>
          <g
             id="g189"
             transform="translate(143.1954,82.4743)">
            <path
               d="m 0,0 c -4.711,7.727 -9.023,15.656 -13.118,23.705 -4.079,8.055 -7.872,16.252 -11.374,24.57 -3.487,8.329 -6.554,16.826 -9.274,25.429 -2.632,8.635 -4.722,17.427 -6.19,26.328 1.551,-8.888 3.72,-17.653 6.429,-26.253 2.797,-8.57 5.937,-17.026 9.495,-25.308 3.574,-8.275 7.436,-16.423 11.581,-24.424 C -8.293,16.058 -3.906,8.167 0.845,0.534 L 0.851,0.524 C 0.997,0.29 0.925,-0.019 0.691,-0.165 0.457,-0.311 0.148,-0.238 0.002,-0.004 Z"
               style="fill:#ffffff;fill-opacity:1;fill-rule:nonzero;stroke:none"
               id="path191" />
          </g>
          <g
             id="g193"
             transform="translate(145.6398,82.9294)">
            <path
               d="m 0,0 c 3.045,7.692 5.561,15.632 7.591,23.67 2.108,8.025 3.13,16.29 4.722,24.459 1.529,8.174 3.157,16.327 4.833,24.471 1.705,8.136 3.356,16.286 5.308,24.368 -1.87,-8.1 -3.44,-16.266 -5.063,-24.418 C 15.797,64.392 14.251,56.224 12.805,48.04 11.298,39.878 10.358,31.588 8.32,23.491 6.359,15.392 3.923,7.421 0.926,-0.377 0.827,-0.635 0.538,-0.764 0.28,-0.664 c -0.258,0.099 -0.386,0.389 -0.287,0.646 l 0.002,0.004 z"
               style="fill:#ffffff;fill-opacity:1;fill-rule:nonzero;stroke:none"
               id="path195" />
          </g>
          <g
             id="g197">
            <g
               id="g199" />
            <g
               id="g211">
              <g
                 clip-path="url(#clipPath203)"
                 opacity="0.5"
                 id="g209">
                <g
                   transform="translate(199.775,111.5026)"
                   id="g207">
                  <path
                     d="M 0,0 C 0,0 2.422,5.777 0.932,8.014 -0.559,10.25 -8.386,8.572 -8.014,3.168 -7.641,-2.236 -2.982,0 0,0"
                     style="fill:#188991;fill-opacity:1;fill-rule:nonzero;stroke:none"
                     id="path205" />
                </g>
              </g>
            </g>
          </g>
          <g
             id="g213">
            <g
               id="g215" />
            <g
               id="g227">
              <g
                 clip-path="url(#clipPath219)"
                 opacity="0.5"
                 id="g225">
                <g
                   transform="translate(212.2609,124.5475)"
                   id="g223">
                  <path
                     d="M 0,0 C 0,0 7.641,3.169 5.218,13.978 2.795,24.786 -10.623,19.568 -12.486,16.214 -14.35,12.859 -16.958,-1.304 0,0"
                     style="fill:#188991;fill-opacity:1;fill-rule:nonzero;stroke:none"
                     id="path221" />
                </g>
              </g>
            </g>
          </g>
          <g
             id="g229">
            <g
               id="g231" />
            <g
               id="g243">
              <g
                 clip-path="url(#clipPath235)"
                 opacity="0.5"
                 id="g241">
                <g
                   transform="translate(150.2028,252.5822)"
                   id="g239">
                  <path
                     d="M 0,0 C 0,0 3.914,-0.377 2.795,3.164 1.677,6.705 -4.286,5.214 -4.1,3.164 -3.914,1.114 -1.108,-0.055 0,0"
                     style="fill:#188991;fill-opacity:1;fill-rule:nonzero;stroke:none"
                     id="path237" />
                </g>
              </g>
            </g>
          </g>
          <g
             id="g245">
            <g
               id="g247" />
            <g
               id="g259">
              <g
                 clip-path="url(#clipPath251)"
                 opacity="0.5"
                 id="g257">
                <g
                   transform="translate(148.153,239.7194)"
                   id="g255">
                  <path
                     d="m 0,0 c 0,0 -0.932,-7.269 7.082,-10.437 8.013,-3.167 12.672,-0.186 12.858,4.473 0.187,4.659 -0.101,8.2 -3.591,10.064 C 12.859,5.963 -0.559,10.436 0,0"
                     style="fill:#188991;fill-opacity:1;fill-rule:nonzero;stroke:none"
                     id="path253" />
                </g>
              </g>
            </g>
          </g>
          <g
             id="g261"
             transform="translate(220.6471,347.5554)">
            <path
               d="m 0,0 c 0,6.05 -4.95,11 -11,11 h -38.132 c -6.05,0 -11,-4.95 -11,-11 v -13.036 c 0,-6.05 4.95,-11 11,-11 h 37.403 l 10.735,-5.218 -0.878,8.824 c -0.166,0.216 -0.344,0.4 -0.527,0.569 1.497,1.88 2.399,4.25 2.399,6.825 z"
               style="fill:#f7a806;fill-opacity:1;fill-rule:nonzero;stroke:none"
               id="path263" />
          </g>
          <g
             id="g265"
             transform="translate(204.6203,345.1999)">
            <path
               d="m 0,0 c 0,-1.338 -1.085,-2.423 -2.423,-2.423 h -29.259 c -1.338,0 -2.422,1.085 -2.422,2.423 0,1.338 1.084,2.422 2.422,2.422 H -2.423 C -1.085,2.422 0,1.338 0,0"
               style="fill:#ffffff;fill-opacity:1;fill-rule:nonzero;stroke:none"
               id="path267" />
          </g>
          <g
             id="g269"
             transform="translate(194.7433,334.3908)">
            <path
               d="m 0,0 c 0,-1.235 -1.001,-2.236 -2.236,-2.236 h -19.755 c -1.235,0 -2.236,1.001 -2.236,2.236 0,1.235 1.001,2.236 2.236,2.236 H -2.236 C -1.001,2.236 0,1.235 0,0"
               style="fill:#ffffff;fill-opacity:1;fill-rule:nonzero;stroke:none"
               id="path271" />
          </g>
          <g
             id="g273"
             transform="translate(454.1442,451.4875)">
            <path
               d="m 0,0 h -41.172 c -4.94,0 -8.945,-4.005 -8.945,-8.945 v -10.188 c 0,-4.94 4.005,-8.946 8.945,-8.946 h 16.97 c 1.091,-2.033 2.987,-5.191 4.928,-6.646 1.164,-1.351 0.77,1.458 0.772,2.889 0.003,1.231 0.695,2.937 2.758,3.757 H 0 c 4.94,0 8.945,4.006 8.945,8.946 V -8.945 C 8.945,-4.005 4.94,0 0,0"
               style="fill:#1a8b91;fill-opacity:1;fill-rule:nonzero;stroke:none"
               id="path275" />
          </g>
          <g
             id="g277"
             transform="translate(457.8854,442.6667)">
            <path
               d="m 0,0 c 0,-1.235 -0.752,-2.236 -1.678,-2.236 h -44.54 c -0.926,0 -1.678,1.001 -1.678,2.236 0,1.235 0.752,2.236 1.678,2.236 h 44.54 C -0.752,2.236 0,1.235 0,0"
               style="fill:#ffffff;fill-opacity:1;fill-rule:nonzero;stroke:none"
               id="path279" />
          </g>
          <g
             id="g281"
             transform="translate(452.3571,432.3547)">
            <path
               d="m 0,0 c 0,-1.218 -0.557,-2.205 -1.243,-2.205 h -39.881 c -0.687,0 -1.243,0.987 -1.243,2.205 0,1.218 0.556,2.205 1.243,2.205 H -1.243 C -0.557,2.205 0,1.218 0,0"
               style="fill:#ffffff;fill-opacity:1;fill-rule:nonzero;stroke:none"
               id="path283" />
          </g>
          <g
             id="g285"
             transform="translate(474.0983,376.0388)">
            <path
               d="m 0,0 4.908,7.528 c 0,0 -5.28,19.591 13.169,25.182 C 36.527,38.301 47.522,23.02 42.305,8.669 37.086,-5.68 15.096,-8.662 6.15,1.588 Z"
               style="fill:#f7a806;fill-opacity:1;fill-rule:nonzero;stroke:none"
               id="path287" />
          </g>
          <path
             d="m 493.232,381.789 h 5.218 v 2.919 h -5.218 z"
             style="fill:#ffffff;fill-opacity:1;fill-rule:nonzero;stroke:none"
             id="path289" />
          <g
             id="g291"
             transform="translate(493.6041,386.758)">
            <path
               d="m 0,0 v 5.715 c 0,0 2.61,0.249 2.858,1.74 0.248,1.49 -1.428,1.863 -2.546,0.497 l -3.107,2.049 c 0,0 2.299,6.71 8.511,5.157 C 11.928,13.604 10.003,7.455 9.009,6.15 8.014,4.846 4.628,3.665 4.628,3.665 L 4.536,0 Z"
               style="fill:#ffffff;fill-opacity:1;fill-rule:nonzero;stroke:none"
               id="path293" />
          </g>
          <g
             id="g295"
             transform="translate(264.442,48.5124)">
            <path
               d="m 0,0 c 0,0 41.932,0.373 46.404,1.118 0,0 21.804,2.796 24.786,5.404 2.982,2.61 -9.877,8.014 -18.263,10.624 -8.386,2.609 -50.318,5.587 -74.358,3.818 -24.041,-1.769 -51.25,-10.178 -29.073,-17.527 12.114,-3.624 34.197,-2.505 34.197,-2.505 z"
               style="fill:#b3dac9;fill-opacity:1;fill-rule:nonzero;stroke:none"
               id="path297" />
          </g>
          <g
             id="g299"
             transform="translate(298.9191,62.738)">
            <path
               d="m 0,0 4.193,-3.215 c 0,0 4.659,-0.574 5.125,-2.997 0.466,-2.423 -2.609,-4.473 -12.952,-4.565 -3.448,-0.187 -7.921,1.863 -11.182,2.236 -3.261,0.372 -6.988,1.397 -6.522,12.952 C -19.009,13.636 -3.261,0.621 0,0"
               style="fill:#0b4665;fill-opacity:1;fill-rule:nonzero;stroke:none"
               id="path301" />
          </g>
          <g
             id="g303"
             transform="translate(240.5914,67.5407)">
            <path
               d="m 0,0 c 0,0 1.767,-10.735 -4.522,-12.691 -5.731,-2.423 -7.968,-3.169 -9.365,-4.007 -1.398,-0.839 -11.182,-0.583 -13.791,1.106 -2.609,1.689 -1.025,5.696 3.168,6.441 l 6.56,5.527 c 0,0 16.898,9.544 17.95,3.624"
               style="fill:#0b4665;fill-opacity:1;fill-rule:nonzero;stroke:none"
               id="path305" />
          </g>
          <g
             id="g307"
             transform="translate(251.7077,149.5827)">
            <path
               d="m 0,0 c 0,0 -8.511,-67.245 -8.697,-70.414 -0.186,-3.168 -1.491,-10.809 -2.982,-12.579 -1.491,-1.771 -5.404,-5.374 -11.834,-7.067 -6.429,-1.692 -8.013,0.637 -7.734,2.501 0,0 8.107,6.429 9.412,11.741 1.304,5.311 2.143,73.788 2.143,80.548 0,6.762 18.698,1.295 19.692,-4.73"
               style="fill:#f48f8f;fill-opacity:1;fill-rule:nonzero;stroke:none"
               id="path309" />
          </g>
          <g
             id="g311"
             transform="translate(280.5314,153.3093)">
            <path
               d="m 0,0 11.182,-83.987 7.206,-6.584 c 0,0 -2.33,-6.212 -13.512,-1.367 -5.87,2.795 -7.827,5.778 -7.827,5.778 0,0 -14.816,76.967 -17.424,81.626 C -22.984,0.125 -1.615,2.484 0,0"
               style="fill:#f48f8f;fill-opacity:1;fill-rule:nonzero;stroke:none"
               id="path313" />
          </g>
          <g
             id="g315"
             transform="translate(275.5992,226.1149)">
            <path
               d="m 0,0 c 0,0 -0.721,-7.827 1.329,-15.654 2.05,-7.827 11.927,-54.232 11.927,-54.232 0,0 -4.286,-13.604 -34.663,-10.063 -26.465,3.085 -31.623,9.318 -31.623,9.318 0,0 1.619,18.235 3.389,30.083 1.771,11.848 5.684,27.317 5.871,38.312 C -43.584,8.759 -2.075,14.35 0,0"
               style="fill:#0b4665;fill-opacity:1;fill-rule:nonzero;stroke:none"
               id="path317" />
          </g>
          <g
             id="g319"
             transform="translate(273.2946,280.5324)">
            <path
               d="m 0,0 c 0,0 -2.05,19.009 -2.236,29.166 -0.187,10.156 -13.326,25.251 -29.632,13.231 0,0 -3.199,1.833 -2.267,-2.889 0,0 -5.343,-1.118 -8.2,-15.157 C -45.193,10.312 -49.168,-5.715 -50.411,-9.443 -51.653,-13.17 -3.758,-14.536 0,0"
               style="fill:#074066;fill-opacity:1;fill-rule:nonzero;stroke:none"
               id="path321" />
          </g>
          <g
             id="g323"
             transform="translate(258.8204,287.3654)">
            <path
               d="m 0,0 v -13.356 l -12.331,-1.304 0.17,17.323 C -12.161,2.663 0,6.709 0,0"
               style="fill:#f48f8f;fill-opacity:1;fill-rule:nonzero;stroke:none"
               id="path325" />
          </g>
          <g
             id="g327"
             transform="translate(266.6783,304.4797)">
            <path
               d="m 0,0 c 0,0 -12.859,-0.838 -21.99,11.088 0,0 -3.914,-1.49 -2.982,-8.852 0,0 -1.553,-0.59 -3.541,0.59 -1.988,1.181 -4.41,-0.745 -3.355,-4.037 1.056,-3.292 4.1,-2.547 4.1,-2.547 0,0 1.771,-15.251 14.257,-15.81 C -1.025,-20.127 -0.093,-5.218 0,0"
               style="fill:#f48f8f;fill-opacity:1;fill-rule:nonzero;stroke:none"
               id="path329" />
          </g>
          <g
             id="g331"
             transform="translate(297.6144,245.6823)">
            <path
               d="m 0,0 c 0,0 8.573,8.573 17.984,17.053 3.168,3.354 5.218,8.013 12.952,7.92 7.734,-0.093 11.275,0 13.791,0.652 2.516,0.652 4.939,0.839 4.939,-0.652 0,-1.491 -10.25,-4.752 -15.655,-5.684 -0.839,0.093 -1.677,0 -1.677,0 0,0 -16.866,-22.829 -22.55,-28.793 -5.684,-5.964 -10.622,-5.684 -14.629,0 C -8.852,-3.82 0,0 0,0"
               style="fill:#f48f8f;fill-opacity:1;fill-rule:nonzero;stroke:none"
               id="path333" />
          </g>
          <g
             id="g335"
             transform="translate(207.6662,245.7663)">
            <path
               d="m 0,0 c 0,0 -21.03,20.975 -22.148,22.28 -1.118,1.304 -7.734,1.584 -10.157,1.584 -2.423,0 -8.945,-0.28 -10.342,0 -1.398,0.28 -4.66,-2.796 3.168,-4.939 7.827,-2.143 11.74,-2.515 15.281,-8.199 3.541,-5.684 17.798,-26.93 23.202,-28.607 5.405,-1.678 8.759,-1.025 11.834,4.007 C 13.913,-8.843 0,0 0,0"
               style="fill:#f48f8f;fill-opacity:1;fill-rule:nonzero;stroke:none"
               id="path337" />
          </g>
          <g
             id="g339"
             transform="translate(300.2858,251.4601)">
            <path
               d="m 0,0 -3.727,2.36 c 0,0 -0.048,0.07 -0.121,0.175 -0.99,-2.825 -4.768,-13.679 -6.305,-19.3 l 2.698,-2.368 c 0,0 6.834,12.175 7.455,19.133"
               style="fill:#1a8b91;fill-opacity:1;fill-rule:nonzero;stroke:none"
               id="path341" />
          </g>
          <g
             id="g343"
             transform="translate(296.4381,253.9948)">
            <path
               d="m 0,0 c -1.416,2.044 -16.097,23.173 -20.441,26.631 -3.448,3.075 -16.307,-2.703 -17.239,-2.796 0,0 -1.025,-2.888 -5.311,-2.795 -4.286,0.093 -6.896,2.888 -6.896,2.888 v 1.026 c 0,0 -7.873,2.608 -11.997,3.074 -4.123,0.466 -7.571,-3.541 -10.553,-7.361 -2.435,-3.12 -8.845,-15.805 -14.058,-22.08 1.357,-3.806 5.618,-14.331 12.626,-19.028 1.242,1.604 2.696,3.756 3.576,5.979 0,0 0.559,-9.598 0.559,-12.02 0,-2.423 -1.77,-6.989 11.554,-7.92 13.325,-0.932 32.8,-3.355 39.416,6.615 1.77,5.601 0.466,19.009 0.466,19.009 L -6.305,-19.3 C -4.768,-13.679 -0.99,-2.824 0,0"
               style="fill:#ffffff;fill-opacity:1;fill-rule:nonzero;stroke:none"
               id="path345" />
          </g>
          <g
             id="g347"
             transform="translate(209.943,252.5822)">
            <path
               d="m 0,0 c -1.171,-1.409 -2.282,-2.498 -3.273,-3.079 0,0 2.889,-15.375 13.325,-20.22 l 0.28,1.584 c 0,0 1.038,1.062 2.294,2.686 C 5.618,-14.332 1.357,-3.806 0,0"
               style="fill:#1a8b91;fill-opacity:1;fill-rule:nonzero;stroke:none"
               id="path349" />
          </g>
          <g
             id="g351"
             transform="translate(278.1393,244.7165)">
            <path
               d="m 0,0 c -0.105,0 -0.21,0.033 -0.301,0.101 l -4.802,3.628 -0.023,0.213 c -1.985,18.103 3.086,26.567 3.303,26.918 0.144,0.235 0.452,0.309 0.687,0.163 0.235,-0.144 0.309,-0.452 0.164,-0.688 -0.05,-0.083 -5.062,-8.493 -3.184,-26.069 L 0.302,0.899 C 0.522,0.732 0.566,0.419 0.399,0.198 0.301,0.068 0.151,0 0,0"
               style="fill:#afc1d1;fill-opacity:1;fill-rule:nonzero;stroke:none"
               id="path353" />
          </g>
          <g
             id="g355"
             transform="translate(254.9215,269.6916)">
            <path
               d="m 0,0 c -2.521,0 -6.97,0.487 -9.242,3.654 -0.161,0.224 -0.11,0.536 0.115,0.698 0.224,0.161 0.536,0.11 0.697,-0.115 C -5.565,0.245 1.653,1.078 1.726,1.087 1.996,1.125 2.249,0.926 2.283,0.652 2.316,0.378 2.122,0.128 1.848,0.095 1.754,0.083 1.042,0 0,0"
               style="fill:#afc1d1;fill-opacity:1;fill-rule:nonzero;stroke:none"
               id="path357" />
          </g>
          <g
             id="g359"
             transform="translate(233.7863,255.2463)">
            <path
               d="m 0,0 c -0.026,0 -0.054,0.002 -0.081,0.006 -0.273,0.045 -0.457,0.302 -0.413,0.574 1.809,11.124 -3.689,19.688 -3.745,19.773 -0.151,0.231 -0.087,0.541 0.144,0.692 0.232,0.153 0.541,0.087 0.692,-0.144 C -3.167,20.541 2.367,11.94 0.493,0.42 0.453,0.174 0.241,0 0,0"
               style="fill:#afc1d1;fill-opacity:1;fill-rule:nonzero;stroke:none"
               id="path361" />
          </g>
          <g
             id="g363"
             transform="translate(225.9581,238.2878)">
            <path
               d="M 0,0 C -0.082,0 -0.166,0.021 -0.242,0.062 -0.484,0.197 -0.571,0.501 -0.437,0.743 L 2.359,5.774 C 2.493,6.016 2.798,6.101 3.039,5.969 3.28,5.834 3.367,5.53 3.233,5.288 L 0.437,0.257 C 0.346,0.093 0.176,0 0,0"
               style="fill:#afc1d1;fill-opacity:1;fill-rule:nonzero;stroke:none"
               id="path365" />
          </g>
          <g
             id="g367"
             transform="translate(281.2604,286.5319)">
            <path
               d="m 0,0 7.595,-3.391 2.873,4.1 L 0.42,1.641 Z"
               style="fill:#074066;fill-opacity:1;fill-rule:nonzero;stroke:none"
               id="path369" />
          </g>
          <g
             id="g371"
             transform="translate(280.8419,289.757)">
            <path
               d="M 0,0 C 0.373,0 7.361,5.125 7.361,5.125 L 4.411,9.163 -1.397,1.48 Z"
               style="fill:#074066;fill-opacity:1;fill-rule:nonzero;stroke:none"
               id="path373" />
          </g>
          <g
             id="g375"
             transform="translate(218.9479,283.1413)">
            <path
               d="M 0,0 H 1.699 L -2.214,10.063 -6.407,6.616 Z"
               style="fill:#074066;fill-opacity:1;fill-rule:nonzero;stroke:none"
               id="path377" />
          </g>
          <g
             id="g379"
             transform="translate(217.1066,279.1345)">
            <path
               d="m 0,0 -8.479,-3.261 c 0,0 -2.703,1.584 -1.398,5.218 H 0 Z"
               style="fill:#074066;fill-opacity:1;fill-rule:nonzero;stroke:none"
               id="path381" />
          </g>
          <g
             id="g383"
             transform="translate(509.1344,67.1491)">
            <path
               d="m 0,0 c 0,0 7.641,-0.872 7.641,-3.512 0,-2.638 -11.741,-6.366 -49.573,-6.738 -37.831,-0.373 -88.161,-2.797 -83.618,5.125 4.542,7.922 35.351,11.26 35.351,11.26 0,0 21.574,-2.408 31.1,-2.781 C -49.572,2.981 -4.473,2.795 0,0"
               style="fill:#b3dac9;fill-opacity:1;fill-rule:nonzero;stroke:none"
               id="path385" />
          </g>
          <g
             id="g387"
             transform="translate(492.983,82.3688)">
            <path
               d="m 0,0 c 0,0 1.987,-5.255 9.69,-6.541 7.705,-1.286 10.437,-4.392 9.443,-8.741 -0.993,-2.113 -8.989,-2.982 -17.043,-3.107 -8.054,-0.124 -21.596,-1.987 -22.714,4.473 -0.249,1.616 1.367,14.536 1.367,14.536 0,0 16.276,5.343 19.257,-0.62"
               style="fill:#0b4665;fill-opacity:1;fill-rule:nonzero;stroke:none"
               id="path389" />
          </g>
          <g
             id="g391"
             transform="translate(426.0172,76.529)">
            <path
               d="m 0,0 c 0,0 0,-8.573 -1.118,-11.555 -1.118,-2.981 -2.983,-4.968 -13.542,-4.72 -10.561,0.248 -21.743,-0.87 -25.346,1.242 -3.602,2.112 -4.348,7.455 5.964,9.566 10.313,2.113 12.797,2.113 16.896,11.679 C -13.045,15.778 -0.497,3.976 0,0"
               style="fill:#0b4665;fill-opacity:1;fill-rule:nonzero;stroke:none"
               id="path393" />
          </g>
          <g
             id="g395"
             transform="translate(478.1989,245.7819)">
            <path
               d="m 0,0 c 0,0 5.591,-61.66 8.572,-86.757 0.87,-10.063 9.319,-71.563 8.2,-77.34 0,0 -12.859,-9.691 -27.954,-0.186 0,0 -16.587,125.794 -17.145,127.47 -0.56,1.678 -2.61,7.641 -3.541,0.374 -0.932,-7.269 -11.492,-122.129 -14.475,-130.081 0,0 -0.434,-3.726 -9.132,-3.417 -8.696,0.311 -18.698,2.796 -19.754,2.486 0,0 5.564,69.014 8.032,126.912 C -64.729,17.357 -66.47,45.26 0,0"
               style="fill:#0b4665;fill-opacity:1;fill-rule:nonzero;stroke:none"
               id="path397" />
          </g>
          <g
             id="g399"
             transform="translate(514.4772,250.2175)">
            <path
               d="m 0,0 c 0,0 2.732,-1.242 5.094,-5.591 2.36,-4.348 3.075,-6.212 4.099,-6.491 0,0 0.219,-3.728 -4.596,-2.144 0,0 -0.715,-3.168 -5.933,-5.031 -5.218,-1.864 -13.045,-4.38 -11.182,16.492 0,0 11.022,3.791 12.518,2.765"
               style="fill:#f48f8f;fill-opacity:1;fill-rule:nonzero;stroke:none"
               id="path401" />
          </g>
          <g
             id="g403"
             transform="translate(410.5494,363.5563)">
            <path
               d="m 0,0 c 0,0 6.802,8.479 10.995,11.275 4.193,2.795 -2.516,3.634 -4.286,2.05 0,0 0.187,3.261 -5.218,5.684 C -3.914,21.432 -9.132,20.406 -10.995,5.125 -13.512,-8.2 -6.709,-3.354 0,0"
               style="fill:#f48f8f;fill-opacity:1;fill-rule:nonzero;stroke:none"
               id="path405" />
          </g>
          <g
             id="g407"
             transform="translate(479.6071,254.3893)">
            <path
               d="m 0,0 c 0,0 1.491,-7.082 0,-9.815 -1.491,-2.734 -34.331,-9.39 -68.125,-1.438 -2.733,1.118 0.001,9.566 0,13.169 C -68.126,5.519 -1.739,3.106 0,0"
               style="fill:#1a8b91;fill-opacity:1;fill-rule:nonzero;stroke:none"
               id="path409" />
          </g>
          <g
             id="g411"
             transform="translate(443.6891,347.9953)">
            <path
               d="m 0,0 c 0,0 11.774,1.242 19.353,0.745 7.578,-0.496 19.443,-1.304 24.102,-12.859 4.658,-11.554 29.259,-82.744 29.259,-82.744 0,0 -2.796,-10.623 -16.214,-6.337 l -18.636,44.168 c 0,0 4.97,-29.569 -2.982,-38.515 0,0 -12.672,-11.678 -63.362,-3.229 0,0 -8.945,5.714 -7.952,13.169 0.994,7.454 3.737,52.982 3.737,52.982 0,0 -17.901,-9.002 -25.355,-10.74 -7.455,-1.74 -19.382,3.23 -11.43,21.866 7.952,18.636 22.115,44.727 22.115,44.727 0,0 12.548,-0.994 15.282,-9.194 l -16.275,-32.055 c 0,0 14.659,15.221 26.213,16.898 C -18.744,-0.625 0,0 0,0"
               style="fill:#1a8b91;fill-opacity:1;fill-rule:nonzero;stroke:none"
               id="path413" />
          </g>
          <g
             id="g415"
             transform="translate(481.3033,290.5915)">
            <path
               d="m 0,0 c -0.364,0 -0.684,0.266 -0.74,0.637 l -4.596,30.191 c -0.062,0.409 0.219,0.792 0.628,0.854 0.423,0.059 0.792,-0.22 0.854,-0.629 L 0.742,0.863 C 0.805,0.454 0.523,0.071 0.114,0.008 0.075,0.003 0.037,0 0,0"
               style="fill:#106578;fill-opacity:1;fill-rule:nonzero;stroke:none"
               id="path417" />
          </g>
          <g
             id="g419"
             transform="translate(444.0035,335.3215)">
            <path
               d="m 0,0 c -1.973,0 -4.098,0.306 -6.096,1.203 -3.025,1.358 -5.215,3.835 -6.507,7.361 -0.142,0.389 0.058,0.82 0.447,0.962 0.386,0.142 0.819,-0.056 0.962,-0.446 1.147,-3.13 3.067,-5.319 5.706,-6.506 C 0.096,0.063 7.151,2.784 7.223,2.811 7.609,2.965 8.043,2.772 8.194,2.388 8.347,2.003 8.157,1.567 7.772,1.416 7.562,1.333 4.115,0 0,0"
               style="fill:#106578;fill-opacity:1;fill-rule:nonzero;stroke:none"
               id="path421" />
          </g>
          <g
             id="g423"
             transform="translate(392.193,319.8498)">
            <path
               d="M 0,0 C -0.294,0 -0.574,0.174 -0.693,0.464 -2.622,5.135 2.755,11.156 2.985,11.41 3.262,11.718 3.736,11.741 4.044,11.463 4.351,11.186 4.375,10.711 4.098,10.404 4.048,10.349 -0.875,4.833 0.693,1.036 0.852,0.653 0.669,0.215 0.286,0.057 0.192,0.018 0.096,0 0,0"
               style="fill:#106578;fill-opacity:1;fill-rule:nonzero;stroke:none"
               id="path425" />
          </g>
          <g
             id="g427"
             transform="translate(469.8121,241.112)">
            <path
               d="m 0,0 c -0.414,0 -0.75,0.336 -0.75,0.75 v 6.851 c 0,0.414 0.336,0.75 0.75,0.75 0.414,0 0.75,-0.336 0.75,-0.75 V 0.75 C 0.75,0.336 0.414,0 0,0"
               style="fill:#106578;fill-opacity:1;fill-rule:nonzero;stroke:none"
               id="path429" />
          </g>
          <g
             id="g431"
             transform="translate(456.0836,239.404)">
            <path
               d="m 0,0 c -0.395,0 -0.725,0.309 -0.748,0.707 l -0.373,6.522 c -0.024,0.415 0.293,0.769 0.706,0.792 0.409,0.038 0.768,-0.292 0.792,-0.706 L 0.75,0.793 C 0.773,0.379 0.457,0.024 0.044,0.001 0.029,0 0.015,0 0,0"
               style="fill:#106578;fill-opacity:1;fill-rule:nonzero;stroke:none"
               id="path433" />
          </g>
          <g
             id="g435"
             transform="translate(442.5104,239.403)">
            <path
               d="m 0,0 c -0.414,0 -0.75,0.336 -0.75,0.75 v 6.512 c 0,0.414 0.336,0.75 0.75,0.75 0.414,0 0.75,-0.336 0.75,-0.75 V 0.75 C 0.75,0.336 0.414,0 0,0"
               style="fill:#106578;fill-opacity:1;fill-rule:nonzero;stroke:none"
               id="path437" />
          </g>
          <g
             id="g439"
             transform="translate(429.7457,239.9011)">
            <path
               d="m 0,0 c -0.414,0 -0.75,0.336 -0.75,0.75 v 6.771 c 0,0.414 0.336,0.75 0.75,0.75 0.414,0 0.75,-0.336 0.75,-0.75 V 0.75 C 0.75,0.336 0.414,0 0,0"
               style="fill:#106578;fill-opacity:1;fill-rule:nonzero;stroke:none"
               id="path441" />
          </g>
          <g
             id="g443"
             transform="translate(416.8854,241.7643)">
            <path
               d="m 0,0 c -0.414,0 -0.75,0.336 -0.75,0.75 v 6.11 c 0,0.414 0.336,0.75 0.75,0.75 0.414,0 0.75,-0.336 0.75,-0.75 V 0.75 C 0.75,0.336 0.414,0 0,0"
               style="fill:#106578;fill-opacity:1;fill-rule:nonzero;stroke:none"
               id="path445" />
          </g>
          <g
             id="g447"
             transform="translate(450.903,245.9147)">
            <path
               d="m 0,0 c -0.585,0 -1.178,0.004 -1.786,0.012 -25.787,0.339 -37.028,2.095 -38.8,6.066 -0.169,0.379 10e-4,0.822 0.379,0.991 0.378,0.166 0.821,-0.001 0.99,-0.38 2.104,-4.713 28.708,-5.063 37.45,-5.177 22.856,-0.309 28.459,5.325 28.513,5.382 0.284,0.299 0.758,0.316 1.058,0.037 0.301,-0.28 0.323,-0.748 0.047,-1.052 C 27.626,5.633 22.229,0 0,0"
               style="fill:#106578;fill-opacity:1;fill-rule:nonzero;stroke:none"
               id="path449" />
          </g>
          <g
             id="g451"
             transform="translate(520.2096,235.3366)">
            <path
               d="M 0,0 C -0.084,0 -0.168,0.021 -0.246,0.064 -2.887,1.556 -4.643,6.768 -4.716,6.989 -4.755,7.2 -4.971,8.279 -6.724,8.38 -6.989,8.396 -7.204,8.28 -7.345,8.026 -7.743,7.305 -7.734,5.119 -5.169,1.504 -5.01,1.279 -5.062,0.967 -5.288,0.807 -5.513,0.649 -5.825,0.7 -5.985,0.926 -8.649,4.68 -8.886,7.306 -8.22,8.511 c 0.326,0.589 0.901,0.903 1.553,0.867 2.112,-0.121 2.835,-1.472 2.922,-2.17 v 10e-4 c 0.011,0 1.696,-4.978 3.991,-6.273 C 0.486,0.8 0.571,0.495 0.436,0.254 0.344,0.092 0.174,0 0,0"
               style="fill:#ce6161;fill-opacity:1;fill-rule:nonzero;stroke:none"
               id="path453" />
          </g>
          <g
             id="g455"
             transform="translate(503.9108,231.1452)">
            <path
               d="M 0,0 C -0.196,0 -0.383,0.116 -0.462,0.31 -0.7,0.887 -2.749,6.006 -1.381,8.051 -1.118,8.443 -0.604,8.912 0.355,8.912 1.601,8.912 2.097,7.44 2.425,6.468 2.474,6.322 2.521,6.184 2.566,6.06 2.661,5.8 2.528,5.513 2.27,5.417 2.01,5.324 1.724,5.454 1.627,5.714 1.579,5.847 1.529,5.993 1.477,6.148 1.24,6.851 0.883,7.912 0.355,7.912 -0.206,7.912 -0.43,7.674 -0.55,7.495 -1.358,6.287 -0.358,2.681 0.462,0.69 0.567,0.436 0.446,0.144 0.19,0.038 0.128,0.012 0.063,0 0,0"
               style="fill:#ce6161;fill-opacity:1;fill-rule:nonzero;stroke:none"
               id="path457" />
          </g>
          <g
             id="g459"
             transform="translate(507.3873,233.0925)">
            <path
               d="M 0,0 C -0.19,0 -0.372,0.109 -0.456,0.294 -1.227,2.001 -3.591,7.661 -1.64,8.848 -1.063,9.198 -0.502,9.272 0.026,9.076 0.82,8.781 1.438,7.92 1.916,6.444 2.001,6.182 1.857,5.899 1.595,5.814 1.327,5.728 1.05,5.874 0.965,6.136 0.477,7.644 -0.051,8.038 -0.322,8.139 -0.56,8.229 -0.812,8.182 -1.12,7.994 -1.925,7.504 -0.955,3.83 0.456,0.706 0.569,0.454 0.457,0.158 0.206,0.044 0.139,0.015 0.069,0 0,0"
               style="fill:#ce6161;fill-opacity:1;fill-rule:nonzero;stroke:none"
               id="path461" />
          </g>
          <g
             id="g463"
             transform="translate(510.6949,234.653)">
            <path
               d="m 0,0 c -0.174,0 -0.343,0.091 -0.435,0.253 -0.32,0.562 -3.099,5.571 -2.247,8.119 0.204,0.611 0.594,1.045 1.159,1.289 C -0.74,9.895 -0.079,9.817 0.499,9.454 1.797,8.638 2.139,6.63 2.152,6.545 2.197,6.272 2.013,6.016 1.74,5.971 1.475,5.933 1.212,6.11 1.166,6.382 1.09,6.84 0.725,8.133 -0.035,8.609 -0.364,8.814 -0.738,8.852 -1.185,8.723 -1.427,8.613 -1.619,8.395 -1.733,8.056 -2.336,6.254 -0.373,2.169 0.435,0.747 0.571,0.507 0.487,0.202 0.247,0.065 0.169,0.021 0.084,0 0,0"
               style="fill:#ce6161;fill-opacity:1;fill-rule:nonzero;stroke:none"
               id="path465" />
          </g>
          <g
             id="g467"
             transform="translate(411.9205,370.7331)">
            <path
               d="m 0,0 c -0.415,0 -0.796,0.132 -1.102,0.396 -0.64,0.553 -0.76,1.503 -0.314,2.48 0.75,1.64 2.287,4.163 2.353,4.27 0.143,0.236 0.45,0.31 0.687,0.166 C 1.859,7.168 1.934,6.86 1.79,6.625 1.774,6.599 0.219,4.045 -0.506,2.46 -0.757,1.913 -0.733,1.399 -0.447,1.152 -0.16,0.904 0.345,0.961 0.873,1.303 2.094,2.093 4.202,5.257 4.912,6.41 5.058,6.646 5.368,6.718 5.6,6.574 5.835,6.429 5.908,6.121 5.764,5.886 5.654,5.709 3.076,1.538 1.416,0.463 0.939,0.155 0.449,0 0,0"
               style="fill:#ce6161;fill-opacity:1;fill-rule:nonzero;stroke:none"
               id="path469" />
          </g>
          <g
             id="g471"
             transform="translate(408.3209,371.7385)">
            <path
               d="m 0,0 c -0.463,0 -0.916,0.132 -1.354,0.396 -0.34,0.206 -0.544,0.571 -0.608,1.087 -0.216,1.77 1.338,5.504 2.969,7.135 0.195,0.195 0.512,0.195 0.707,0 0.195,-0.195 0.195,-0.512 0,-0.707 C 0.334,6.53 -1.146,3.053 -0.969,1.604 -0.942,1.387 -0.882,1.279 -0.838,1.253 -0.433,1.009 -0.03,0.942 0.39,1.052 1.585,1.36 2.5,2.926 2.509,2.941 2.646,3.181 2.951,3.264 3.191,3.125 3.431,2.988 3.514,2.683 3.376,2.444 3.331,2.365 2.247,0.5 0.644,0.084 0.427,0.028 0.213,0 0,0"
               style="fill:#ce6161;fill-opacity:1;fill-rule:nonzero;stroke:none"
               id="path473" />
          </g>
          <g
             id="g475"
             transform="translate(406.1442,373.9284)">
            <path
               d="M 0,0 C -0.579,0 -1.378,0.108 -1.887,0.627 -2.165,0.911 -2.462,1.434 -2.297,2.311 -1.874,4.551 0.142,7.083 0.228,7.19 0.401,7.405 0.716,7.439 0.93,7.268 1.146,7.095 1.18,6.78 1.007,6.564 0.988,6.541 -0.938,4.119 -1.314,2.125 -1.417,1.578 -1.233,1.39 -1.173,1.328 -0.784,0.928 0.218,0.987 0.536,1.039 0.806,1.084 1.064,0.9 1.11,0.627 1.155,0.355 0.972,0.098 0.699,0.053 0.631,0.042 0.357,0 0,0"
               style="fill:#ce6161;fill-opacity:1;fill-rule:nonzero;stroke:none"
               id="path477" />
          </g>
          <g
             id="g479"
             transform="translate(403.0582,376.0226)">
            <path
               d="m 0,0 c -0.39,0 -0.775,0.1 -1.062,0.396 -0.735,0.76 -0.417,2.346 1,4.991 0.13,0.244 0.434,0.334 0.676,0.205 C 0.857,5.462 0.949,5.159 0.818,4.916 -0.863,1.772 -0.402,1.152 -0.344,1.092 -0.128,0.867 0.677,1.077 1.148,1.307 1.397,1.428 1.695,1.326 1.817,1.078 1.939,0.831 1.838,0.532 1.591,0.41 1.47,0.35 0.729,0 0,0"
               style="fill:#ce6161;fill-opacity:1;fill-rule:nonzero;stroke:none"
               id="path481" />
          </g>
          <g
             id="g483"
             transform="translate(410.9948,314.6257)">
            <path
               d="m 0,0 c -0.233,0 -0.463,0.108 -0.609,0.312 -0.243,0.336 -0.166,0.805 0.17,1.046 L 3.278,4.036 C 3.616,4.278 4.084,4.2 4.325,3.866 4.567,3.529 4.491,3.061 4.155,2.819 L 0.437,0.142 C 0.305,0.046 0.151,0 0,0"
               style="fill:#106578;fill-opacity:1;fill-rule:nonzero;stroke:none"
               id="path485" />
          </g>
          <g
             id="g487"
             transform="translate(450.6168,357.7477)">
            <path
               d="m 0,0 v -9.442 c 0,0 1.988,-2.671 0,-4.783 -1.988,-2.112 -9.442,-2.982 -13.045,0.496 -2.609,2.672 -1.429,4.101 -1.429,4.101 v 9.939 c 0,0 13.419,1.24 14.474,-0.311"
               style="fill:#f48f8f;fill-opacity:1;fill-rule:nonzero;stroke:none"
               id="path489" />
          </g>
          <g
             id="g491"
             transform="translate(459.5621,386.4787)">
            <path
               d="m 0,0 c 0,0 0.932,-13.045 0,-19.009 -0.932,-5.964 -2.236,-12.393 -16.307,-12.393 -14.07,0 -14.815,4.566 -17.611,16.773 0,0 -4.473,-1.584 -5.311,3.634 -1.125,7.002 4.07,6.553 4.07,6.553 0,0 3.571,12.548 6.926,13.667 3.354,1.118 12.765,1.584 13.697,1.118 C -13.604,9.877 0,0 0,0"
               style="fill:#f48f8f;fill-opacity:1;fill-rule:nonzero;stroke:none"
               id="path493" />
          </g>
          <g
             id="g495"
             transform="translate(464.5319,391.8522)">
            <path
               d="m 0,0 c 0,0 1.367,-9.069 -10.436,-5.963 -11.802,3.105 -1.987,10.56 -22.239,7.827 -3.106,-0.87 -2.111,-5.219 -2.111,-7.207 0,-1.988 -0.995,-7.33 -7.952,-5.218 0,0 -1.62,2.438 -2.237,3.603 -0.536,1.013 -4.348,11.679 8.449,13.667 0,0 -0.777,2.547 0.248,2.826 1.025,0.28 1.957,-2.795 1.957,-2.795 0,0 2.206,9.349 17.983,7.361 C -8.634,13.169 -7.765,-0.435 0,0"
               style="fill:#074066;fill-opacity:1;fill-rule:nonzero;stroke:none"
               id="path497" />
          </g>
        </g>
      </g>
    </g>
  </g>
</svg>
